<?xml version="1.0" encoding="utf-8"?>
<!-- Generator: Adobe Illustrator 27.9.2, SVG Export Plug-In . SVG Version: 6.00 Build 0)  -->
<svg version="1.1" id="Layer_1" xmlns="http://www.w3.org/2000/svg" xmlns:xlink="http://www.w3.org/1999/xlink" x="0px" y="0px"
	 viewBox="0 0 74.8 28.5" style="enable-background:new 0 0 74.8 28.5;" xml:space="preserve">
<style type="text/css">
	.st0{fill:#2499EF;}
	.st1{fill:#011E3D;}
</style>
<g>
	<g>
		<path class="st0" d="M5.4,0.9c2.9,0,3.8,2.6,3.9,3.8v8.9c0,2.4,0.2,6,3.9,6c3.7,0,4.7-2.9,4.7-4.4c0-2.3,0.6-4.7,4.2-4.7
			c3.8,0,4.4,4.8,3.8,7.4c-0.6,3.3-4.1,9.9-12.7,9.9c-8.7,0-12.3-6.6-12.3-12.1V5.1C0.9,3.3,1.8,0.9,5.4,0.9z"/>
		<circle class="st0" cx="21.6" cy="5.4" r="4.5"/>
	</g>
	<path class="st1" d="M43.3,21.5c-3.6,0-5.8-2.1-5.8-6V8.1H40v7.4c0,2.7,1.2,3.9,3.4,3.9c2.1,0,3.3-1.2,3.3-3.9V8.1h2.4v7.5
		C49.1,19.4,47,21.5,43.3,21.5z M60,21.3L56.5,17l-1.8,1.7v2.7h-2.4v-14h2.4v8.5l4.9-4.5h2.8l-4.2,4.2l4.6,5.9H60z M68.5,21.4
		c-3.1,0-5.4-2.2-5.4-5.2s2.3-5.2,5.4-5.2c3.1,0,5.4,2.1,5.4,5.2S71.6,21.4,68.5,21.4z M68.5,19.4c1.7,0,3-1.2,3-3.2
		c0-1.9-1.3-3.2-3-3.2c-1.7,0-3,1.2-3,3.2C65.5,18.2,66.8,19.4,68.5,19.4z"/>
</g>
</svg>
