<?xml version="1.0" standalone="no"?>
<!DOCTYPE svg PUBLIC "-//W3C//DTD SVG 1.1//EN" "http://www.w3.org/Graphics/SVG/1.1/DTD/svg11.dtd" >
<svg xmlns="http://www.w3.org/2000/svg">
<metadata>Generated by IcoMoon</metadata>
<defs>
<font id="icomoon" horiz-adv-x="1024">
<font-face units-per-em="1024" ascent="960" descent="-64" />
<missing-glyph horiz-adv-x="1024" />
<glyph unicode="&#x20;" horiz-adv-x="512" d="" />
<glyph unicode="&#xe900;" d="M261.223 960c-34.482 0-62.694-28.8-62.694-64v-896c0-35.2 28.212-64 62.694-64h626.936c34.48 0 62.694 28.8 62.694 64v704l-250.774 256h-438.857z" />
<glyph unicode="&#xe901;" d="M762.774 704h188.080l-250.774 256v-192c0-35.2 28.211-64 62.694-64z" />
<glyph unicode="&#xe902;" d="M950.857 512l-188.080 192h188.080v-192z" />
<glyph unicode="&#xe903;" d="M825.465 128c0-17.598-14.106-32-31.345-32h-689.63c-17.241 0-31.347 14.402-31.347 32v320c0 17.602 14.106 32 31.347 32h689.63c17.24 0 31.345-14.398 31.345-32v-320z" />
<glyph unicode="&#xe904;" d="M272.725 337.053h-42.847c-21.061 0-19.807 32 0 32h76.682c15.301 0 22.315-17.96 11.030-29.44l-41.593-39.68c30.602 2.3 54.641-20.919 54.641-49.638 0-31.462-21.786-58.302-67.65-58.302-20.062 0-39.85 8.441-51.409 26.84-12.029 18.139 13.753 35.58 27.311 17.66 6.544-8.678 17.084-13.060 28.33-13.060 15.262 0 30.309 6.682 30.309 26.88 0 26.62-31.817 22.499-49.097 20.74-21.061-4.118-27.33 19.2-15.046 28.862l39.34 37.138z" />
<glyph unicode="&#xe905;" d="M382.757 192.011c-8.268 0-17.299 4.601-17.299 15.839v145.342c0 9.179 9.032 15.879 17.299 15.879h57.406c114.531 0 112.026-177.061 2.253-177.061h-59.659zM398.567 337.832v-114.622h41.595c67.668 0 70.685 114.622 0 114.622h-41.595z" />
<glyph unicode="&#xe906;" d="M554.847 330.664c5.76 49.66 79.188 58.598 113.788 31.459 17.042-14.040-1.002-36.319-16.048-25.059-18.553 11.999-60.654 17.638-65.927-8.92-6.777-41.98 102.25-17.96 100.506-86.020-1.763-65.002-93.981-66.501-128.578-37.343-8.309 6.923-8.035 18.143-3.507 25.081 6.524 6.619 13.751 8.92 22.316 1.763 20.531-14.303 73.446-25.062 77.169 11.297-3.233 37.822-107.498 15.060-99.719 87.742z" />
<glyph unicode="&#xe907;" d="M794.119 96h-595.59v-32h595.59c17.24 0 31.345 14.398 31.345 32v32c0-17.602-14.106-32-31.345-32z" />
<glyph unicode="&#xe908;" glyph-name="rotate" d="M512 789.333c-235.52 0-426.667-133.605-426.667-298.796 5.917-95.601 61.445-181.115 146.347-225.379 60.564-35.26 129.618-53.272 199.68-52.077h37.973v-85.371c0.119-8.537 5.315-16.183 13.21-19.436 7.892-3.249 16.961-1.481 23.057 4.495l128 128.058c8.131 8.298 8.131 21.579 0 29.877l-128 128.058c-6.096 5.977-15.165 7.745-23.057 4.495-7.895-3.253-13.090-10.895-13.21-19.436v-85.371h-37.973c-54.419-1.174-108.121 12.554-155.307 39.697-59.192 29.047-99.086 86.733-105.387 152.388 0 115.674 156.16 213.425 341.333 213.425s341.333-97.751 341.333-213.425c-5.717-62.532-42.636-117.934-98.133-147.265-4.717-2.983-8.049-7.728-9.25-13.179s-0.177-11.158 2.85-15.848l22.613-36.71c6.376-9.834 19.388-12.851 29.44-6.83 80.746 44.609 132.83 127.686 137.813 219.832 0 165.191-191.147 298.796-426.667 298.796z" />
<glyph unicode="&#xe909;" glyph-name="rotate_01" d="M512 775.68c-226.099 0-409.6-128.261-409.6-286.847 5.68-91.771 58.987-173.867 140.493-216.363 58.141-33.849 124.433-51.139 191.693-49.992h36.454v-81.957c0.115-8.196 5.104-15.536 12.681-18.657s16.286-1.425 22.135 4.317l122.88 122.933c7.807 7.967 7.807 20.718 0 28.684l-122.88 122.933c-5.849 5.738-14.557 7.438-22.135 4.317-7.578-3.125-12.567-10.461-12.681-18.661v-81.953h-36.454c-52.241-1.126-103.796 12.050-149.094 38.109-56.824 27.881-95.122 83.259-101.171 146.289 0 111.052 149.914 204.891 327.68 204.891s327.68-93.839 327.68-204.891c-5.489-60.027-40.931-113.213-94.208-141.373-4.53-2.863-7.725-7.418-8.88-12.648-1.155-5.235-0.168-10.711 2.736-15.217l21.709-35.242c6.119-9.441 18.612-12.337 28.262-6.554 77.517 42.824 127.517 122.577 132.301 211.034 0 158.586-183.501 286.847-409.6 286.847z" />
<glyph unicode="&#xe90a;" glyph-name="accessibility" d="M593.92 816.64c0-45.243-36.676-81.92-81.92-81.92s-81.92 36.677-81.92 81.92c0 45.243 36.676 81.92 81.92 81.92s81.92-36.677 81.92-81.92zM880.64 632.32v40.96c0 11.311-9.171 20.48-20.48 20.48h-696.32c-11.311 0-20.48-9.169-20.48-20.48v-40.96c0-11.311 9.169-20.48 20.48-20.48h225.28v-593.92c0-11.309 9.169-20.48 20.48-20.48h40.96c11.309 0 20.48 9.171 20.48 20.48v307.2h81.92v-307.2c0-11.309 9.171-20.48 20.48-20.48h40.96c11.309 0 20.48 9.171 20.48 20.48v593.92h225.28c11.309 0 20.48 9.169 20.48 20.48z" />
<glyph unicode="&#xe90b;" glyph-name="accessibility_vs" d="M512 898.56c-45.244 0-81.92-36.677-81.92-81.92s36.676-81.92 81.92-81.92c45.244 0 81.92 36.677 81.92 81.92s-36.676 81.92-81.92 81.92zM863.973 766.020c4.87-2.473 8.524-6.824 10.113-12.049l13.107-38.502c3.523-10.851-2.314-22.521-13.107-26.214l-175.718-58.573c-20.709-6.701-41.947-11.634-63.488-14.746v-598.016c0-11.309-9.171-20.48-20.48-20.48h-40.96c-11.313 0-20.48 9.171-20.48 20.48v307.2h-81.92v-307.2c0-11.309-9.171-20.48-20.48-20.48h-40.96c-11.311 0-20.48 9.171-20.48 20.48v598.016c-21.578 2.917-42.834 7.854-63.488 14.746l-175.718 58.573c-10.795 3.693-16.63 15.363-13.107 26.214l13.107 38.502c1.59 5.225 5.242 9.576 10.111 12.049s10.537 2.856 15.694 1.058l175.718-58.573c29.187-9.741 59.752-14.719 90.522-14.746h139.674c30.908-0.018 61.612 4.961 90.931 14.746l175.718 58.573c5.157 1.797 10.826 1.415 15.692-1.058z" />
<glyph unicode="&#xe90c;" glyph-name="accessible" d="M389.12 775.68c0 45.243 36.677 81.92 81.92 81.92s81.92-36.677 81.92-81.92-36.676-81.92-81.92-81.92c-45.243 0-81.92 36.677-81.92 81.92zM839.68 64.614l-61.44 212.173c-15.032 52.9-63.382 89.371-118.374 89.293h-106.906v122.88c29.336-25.883 66.97-40.411 106.086-40.96h77.414c11.309 0 20.48 9.171 20.48 20.48v40.96c0 11.309-9.171 20.48-20.48 20.48h-77.414c-27.55 0.004-53.252 13.857-68.403 36.864l-32.358 49.152c-15.151 23.008-40.854 36.859-68.403 36.864h-18.842c-45.243 0-81.92-36.677-81.92-81.92v-225.28c0-33.931 27.508-61.44 61.44-61.44h193.741c27.525-0.008 51.737-18.207 59.392-44.646l54.067-186.368c2.548-8.737 10.559-14.746 19.661-14.746h40.96c11.309 0 20.48 9.171 20.48 20.48 0.446 1.884 0.721 3.801 0.819 5.734zM403.239 120.787c62.12 7.188 108.937 59.879 108.761 122.413h81.92c-0.020-107.77-83.562-197.087-191.092-204.3s-202.251 70.144-216.667 176.947c-14.416 106.803 56.406 206.504 161.999 228.057v-85.197c-58.957-20.845-92.857-82.645-78.753-143.565 14.104-60.924 71.713-101.54 133.833-94.355z" />
<glyph unicode="&#xe90d;" glyph-name="accessible_forward" d="M634.88 755.2c0 45.243 36.676 81.92 81.92 81.92s81.92-36.677 81.92-81.92c0-45.243-36.676-81.92-81.92-81.92s-81.92 36.677-81.92 81.92zM680.755 536.474c11.756 25.4 9.728 55.043-5.374 78.607-15.098 23.565-41.185 37.788-69.173 37.719h-154.419c-47.751 0.033-91.197-27.6-111.412-70.861l-29.901-63.898c-2.954-6.382-2.427-13.836 1.398-19.739s10.411-9.429 17.444-9.343h45.056c7.987-0.152 15.272 4.542 18.432 11.878l21.709 46.285c6.719 14.518 21.275 23.797 37.274 23.757h64.307l-79.462-169.984c-12.010-25.571-9.997-55.525 5.325-79.258 15.323-23.732 41.796-37.896 70.042-37.478h184.32c11.309 0 20.48-9.171 20.48-20.48v-204.8c0-11.309 9.171-20.48 20.48-20.48h40.96c11.309 0 20.48 9.171 20.48 20.48v225.28c0 45.244-36.676 81.92-81.92 81.92h-115.507l79.462 170.394zM309.928 222.388c10.072-58.618 60.678-101.605 120.152-102.068 67.863 0 122.88 55.013 122.88 122.88h81.92c-0.020-107.77-83.562-197.087-191.091-204.3-107.531-7.213-202.253 70.144-216.669 176.947s56.406 206.504 161.999 228.057v-85.197c-55.909-20.287-89.263-77.701-79.192-136.319z" />
<glyph unicode="&#xe90e;" d="M512 0c247.424 0 448 200.576 448 448s-200.576 448-448 448c-247.423 0-448-200.577-448-448s200.577-448 448-448z" />
<glyph unicode="&#xe90f;" d="M512.012 488.737c67.481 0 122.182 54.703 122.182 122.182s-54.701 122.182-122.182 122.182c-67.481 0-122.182-54.703-122.182-122.182s54.701-122.182 122.182-122.182zM430.557 407.283c-67.479 0-122.182-54.701-122.182-122.182s54.703-122.182 122.182-122.182h162.909c67.482 0 122.182 54.701 122.182 122.182s-54.701 122.182-122.182 122.182h-162.909z" />
<glyph unicode="&#xe910;" glyph-name="account_circle" d="M512 857.6c-226.216 0-409.6-183.384-409.6-409.6 0-226.214 183.384-409.6 409.6-409.6 226.214 0 409.6 183.386 409.6 409.6 0 108.632-43.155 212.816-119.968 289.631-76.816 76.815-180.998 119.969-289.632 119.969zM512 734.72c67.867 0 122.88-55.015 122.88-122.88 0-67.867-55.013-122.88-122.88-122.88s-122.88 55.013-122.88 122.88c0 67.865 55.013 122.88 122.88 122.88zM512 161.821c90.73 0 176.103 42.942 230.195 115.786 8.38 12.251 9.478 28.078 2.867 41.37l-9.421 19.251c-20.611 42.062-63.341 68.751-110.182 68.813h-226.918c-47.509-0.049-90.731-27.484-111.002-70.451l-8.602-18.022c-6.451-13.181-5.357-28.807 2.867-40.96 54.090-72.843 139.466-115.786 230.195-115.786z" />
<glyph unicode="&#xe911;" glyph-name="account_square" d="M798.72 816.64c45.244 0 81.92-36.677 81.92-81.92v-573.44c0-45.244-36.676-81.92-81.92-81.92h-573.44c-45.243 0-81.92 36.676-81.92 81.92v573.44c0 45.243 36.677 81.92 81.92 81.92h573.44zM512 693.76c-67.867 0-122.88-55.015-122.88-122.88 0-67.867 55.013-122.88 122.88-122.88s122.88 55.013 122.88 122.88c0 67.865-55.013 122.88-122.88 122.88zM270.728 216.875c5.601-9.114 15.537-14.655 26.232-14.635h430.080c10.621 0.119 20.427 5.718 25.932 14.807 5.501 9.085 5.919 20.369 1.102 29.839l-37.274 74.138c-13.881 27.55-42.062 44.962-72.909 45.056h-263.782c-30.848-0.094-59.027-17.506-72.909-45.056l-37.683-74.138c-4.848-9.531-4.39-20.902 1.211-30.011z" />
<glyph unicode="&#xe912;" glyph-name="account_square_outlined" d="M225.28 816.64h573.44c45.244 0 81.92-36.677 81.92-81.92v-573.44c0-45.244-36.676-81.92-81.92-81.92h-573.44c-45.243 0-81.92 36.676-81.92 81.92v573.44c0 45.243 36.677 81.92 81.92 81.92zM798.72 161.28v573.44h-573.44v-573.44h573.44zM512 478.72c50.897 0 92.16 41.263 92.16 92.16 0 50.899-41.263 92.16-92.16 92.16s-92.16-41.261-92.16-92.16c-0.109-24.478 9.565-47.981 26.874-65.286 17.306-17.31 40.808-26.984 65.286-26.874zM712.311 257.835c-5.599-9.114-15.536-14.655-26.231-14.635h-348.16c-10.549 0.258-20.227 5.915-25.632 14.975-5.405 9.064-5.779 20.267-0.992 29.671l36.864 74.138c13.815 27.419 41.799 44.81 72.499 45.056h182.682c30.7-0.246 58.683-17.637 72.499-45.056l37.683-74.138c4.85-9.531 4.391-20.902-1.212-30.011z" />
<glyph unicode="&#xe913;" d="M666.962 795.048c0-106.134 86.166-192.172 192.457-192.172 11.701 0.058 23.378 1.181 34.874 3.355v-380.989c0-160.28-94.546-255.109-255.065-255.109h-349.611c-160.938 0-255.485 94.829-255.485 255.109v349.102c0 160.283 94.546 255.949 255.485 255.949h380.703c-2.253-11.612-3.383-23.416-3.359-35.245zM566.955 309.583l136.564 176.227v0.84c11.694 15.708 8.711 37.864-6.724 49.934-7.468 5.762-16.957 8.26-26.3 6.915-9.349-1.345-17.749-6.414-23.282-14.049l-115.139-148.115-131.103 103.219c-7.482 5.83-17.005 8.404-26.416 7.144-9.407-1.266-17.91-6.26-23.586-13.858l-141.19-182.101c-4.963-6.188-7.635-13.896-7.564-21.818-0.819-16.019 9.296-30.57 24.612-35.407s31.969 1.266 40.52 14.841l118.076 152.733 131.106-102.799c7.455-6.011 17.043-8.735 26.552-7.55s18.125 6.185 23.873 13.844z" />
<glyph unicode="&#xe914;" d="M870.4 686.933c65.98 0 119.467 53.487 119.467 119.467s-53.487 119.467-119.467 119.467c-65.98 0-119.467-53.487-119.467-119.467s53.487-119.467 119.467-119.467z" />
<glyph unicode="&#xe916;" d="M989.867 892.527c0 8.842-3.512 17.322-9.766 23.575s-14.732 9.765-23.572 9.765h-889.056c-8.842 0-17.322-3.513-23.575-9.765s-9.765-14.733-9.765-23.575v-563.216c0-8.844 3.513-17.323 9.765-23.576 6.253-6.25 14.733-9.766 23.575-9.766h194.481c7.586 0.031 14.935 2.642 20.835 7.41s9.997 11.407 11.616 18.818l51.565 239.155 54.9-486.311c0.874-7.516 4.277-14.513 9.656-19.838 5.376-5.325 12.404-8.663 19.927-9.465 7.526-0.802 15.101 0.983 21.477 5.055 6.38 4.072 11.182 10.196 13.619 17.357l76.902 227.82h96.239c7.11-0.065 14.046 2.174 19.777 6.38 5.731 4.209 9.943 10.158 12.008 16.961l46.23 146.248 24.45-142.025c1.318-7.752 5.352-14.78 11.38-19.828 6.025-5.052 13.653-7.793 21.514-7.735h182.48c8.841 0 17.319 3.516 23.572 9.766 6.253 6.253 9.766 14.732 9.766 23.576v563.216z" />
<glyph unicode="&#xe917;" d="M956.529 925.867h-889.056c-8.842 0-17.322-3.513-23.575-9.765s-9.765-14.733-9.765-23.575v-889.056c0-8.841 3.513-17.319 9.765-23.572s14.733-9.766 23.575-9.766h889.056c8.841 0 17.319 3.512 23.572 9.766s9.766 14.732 9.766 23.572v889.056c0 8.842-3.512 17.322-9.766 23.575s-14.732 9.765-23.572 9.765zM923.187 859.188v-496.538h-121.132l-43.121 249.825c-1.277 7.371-4.997 14.098-10.561 19.099-5.567 5.001-12.65 7.985-20.115 8.473s-14.879-1.55-21.047-5.785c-6.164-4.235-10.728-10.421-12.957-17.564l-80.015-254.048h-96.017c-6.909-0.003-13.647-2.144-19.296-6.12s-9.933-9.602-12.264-16.104l-36.451-108.244-60.679 539.212c0.218 4.378-0.427 8.757-1.901 12.885-1.471 4.129-3.744 7.927-6.687 11.178-2.939 3.251-6.492 5.89-10.452 7.768-3.963 1.878-8.253 2.957-12.633 3.176s-8.759-0.427-12.885-1.9c-4.129-1.473-7.927-3.745-11.178-6.686s-5.89-6.494-7.768-10.455c-1.878-3.961-2.957-8.253-3.176-12.632l-88.905-412.078h-133.358v496.538h822.597zM100.812 36.813v259.157h161.141c7.586 0.031 14.935 2.642 20.835 7.41s9.997 11.407 11.616 18.818l51.565 239.155 54.9-486.311c0.874-7.516 4.277-14.513 9.656-19.838 5.376-5.325 12.404-8.663 19.927-9.465 7.526-0.802 15.101 0.983 21.477 5.055 6.38 4.072 11.182 10.192 13.619 17.357l76.902 227.82h96.239c7.11-0.065 14.046 2.174 19.777 6.38 5.731 4.209 9.943 10.158 12.008 16.961l46.23 146.248 24.45-142.025c1.318-7.752 5.352-14.78 11.38-19.831 6.025-5.048 13.653-7.789 21.514-7.731h149.139v-259.157h-822.375z" />
<glyph unicode="&#xe918;" glyph-name="adaptive_lighting" d="M911.503 403.739c3.813-5.005 5.165-11.469 3.682-17.584-42.545-139.194-174.1-231.789-319.488-224.87h-22.528c-60.088-0.979-112.071 41.644-122.88 100.762-11.518 61.334-17.682 123.556-18.432 185.958 0.074 62.341 5.554 124.562 16.384 185.958 10.809 59.117 62.792 101.742 122.88 100.762h15.155c11.313 0 20.48-9.169 20.48-20.48v-40.96c0-11.311-9.167-20.48-20.48-20.48h-14.336c-20.029 0.327-37.356-13.881-40.96-33.587-10.863-56.438-16.622-113.741-17.203-171.212 0.311-57.446 5.796-114.749 16.384-171.213 3.604-19.706 20.931-33.915 40.96-33.587h24.576c104.686-6.857 201.322 56.23 237.158 154.829 2.949 8.335 10.822 13.91 19.661 13.926h43.008c6.291-0.193 12.161-3.215 15.978-8.221zM313.074 546.718c10.833 3.293 22.349-2.466 26.214-13.107l10.65-29.082c1.77-5.267 1.277-11.035-1.363-15.925s-7.188-8.466-12.564-9.88l-194.97-65.126c-5.212-1.806-10.933-1.438-15.868 1.032-4.934 2.466-8.665 6.82-10.346 12.075l-9.421 29.082c-3.534 10.625 2.122 22.122 12.698 25.805l194.97 65.126zM337.24 332.497c10.576 3.682 16.232 15.176 12.698 25.805l-10.65 29.082c-1.681 5.255-5.412 9.609-10.346 12.075s-10.655 2.839-15.868 1.032l-196.198-65.126c-5.149-1.679-9.403-5.366-11.794-10.224s-2.717-10.478-0.904-15.581l10.65-29.082c3.865-10.641 15.381-16.4 26.214-13.107l196.198 65.126zM339.288 241.566c-1.766 5.177-5.531 9.437-10.456 11.821s-10.599 2.699-15.758 0.877l-194.97-64.717c-5.921-1.421-10.904-5.403-13.595-10.863-2.691-5.464-2.813-11.842-0.331-17.4l9.421-29.082c1.91-5.337 5.946-9.642 11.146-11.891 5.2-2.253 11.1-2.249 16.297 0.012l194.97 64.717c5.707 1.462 10.508 5.317 13.174 10.568 2.666 5.255 2.941 11.403 0.752 16.876l-10.65 29.082zM339.288 679.837c-1.507 5.405-5.165 9.955-10.12 12.587s-10.773 3.117-16.095 1.339l-194.97-65.946c-5.405-1.507-9.955-5.165-12.587-10.12s-3.116-10.773-1.339-16.095l10.65-30.72c1.766-5.179 5.532-9.436 10.456-11.821s10.599-2.701 15.758-0.876l194.97 66.355c5.405 1.507 9.955 5.165 12.587 10.12s3.117 10.773 1.339 16.095l-10.65 29.082zM772.645 600.374l-60.211-59.801c-5.849-5.738-14.557-7.434-22.135-4.313-7.578 3.117-12.567 10.453-12.681 18.648v159.334c0.422 11.132 9.347 20.060 20.48 20.48h158.925c8.368-0.021 15.843-5.23 18.76-13.071s0.664-16.67-5.652-22.155l-40.96-40.96c43.594-39.619 73.675-91.904 86.016-149.503 1.192-6.058-0.303-12.333-4.096-17.203-3.899-4.841-9.757-7.696-15.974-7.782h-40.96c-9.335 0.098-17.42 6.5-19.661 15.565-10.26 38.937-31.777 73.984-61.85 100.761z" />
<glyph unicode="&#xe919;" glyph-name="add" d="M891.399 677.699c-45.899 75.5-114.698 137.3-195.198 173.7-86.101 38.9-182.6 49.8-275.2 30.9-87.3-17.8-168.701-63.4-230.201-127.8-61.8-64.7-103.7-148.001-117.3-236.499-3.6-23.303-5.5-46.8-5.5-70.4 0-91.303 28.2-182.101 81.4-256.403 52.6-73.499 125.9-129.799 210.799-161 87.002-31.898 184.501-35 273.5-9.598 85.303 24.399 163.103 74.998 219.501 143.599 58.501 71.001 93.798 158 101.001 249.801 7.298 91.6-15.101 185.201-62.802 263.699zM678.199 418h-136.199v-137.1c0-16.8-13.8-29.3-30-30-16.2-0.703-30 14.298-30 30v137.1h-137.001c-16.799 0-29.299 13.8-29.999 30s14.3 30 29.999 30h137.001v136.199c0 16.801 13.8 29.301 30 30.001s30-14.3 30-30.001v-136.199h136.199c16.8 0 29.3-13.8 30-30 0.703-16.2-14.298-30-30-30z" />
<glyph unicode="&#xe91a;" glyph-name="add_a" d="M798.72 468.48v-40.96c0-11.309-9.171-20.48-20.48-20.48h-225.28v-225.28c0-11.309-9.171-20.48-20.48-20.48h-40.96c-11.309 0-20.48 9.171-20.48 20.48v225.28h-225.28c-11.311 0-20.48 9.171-20.48 20.48v40.96c0 11.309 9.169 20.48 20.48 20.48h225.28v225.28c0 11.311 9.171 20.48 20.48 20.48h40.96c11.309 0 20.48-9.169 20.48-20.48v-225.28h225.28c11.309 0 20.48-9.171 20.48-20.48z" />
<glyph unicode="&#xe91b;" glyph-name="add_circle" d="M102.4 448c0 226.216 183.384 409.6 409.6 409.6 108.634 0 212.816-43.154 289.632-119.969 76.812-76.815 119.968-180.999 119.968-289.631 0-226.214-183.386-409.6-409.6-409.6-226.216 0-409.6 183.386-409.6 409.6zM655.36 407.040c11.309 0 20.48 9.171 20.48 20.48v40.96c0 11.309-9.171 20.48-20.48 20.48h-102.4v102.4c0 11.311-9.171 20.48-20.48 20.48h-40.96c-11.309 0-20.48-9.169-20.48-20.48v-102.4h-102.4c-11.311 0-20.48-9.171-20.48-20.48v-40.96c0-11.309 9.169-20.48 20.48-20.48h102.4v-102.4c0-11.309 9.171-20.48 20.48-20.48h40.96c11.309 0 20.48 9.171 20.48 20.48v102.4h102.4z" />
<glyph unicode="&#xe91c;" glyph-name="add_circle_outlined" d="M512 857.6c-226.216 0-409.6-183.384-409.6-409.6 0-226.214 183.384-409.6 409.6-409.6 226.214 0 409.6 183.386 409.6 409.6 0 108.632-43.155 212.816-119.968 289.631-76.816 76.815-180.998 119.969-289.632 119.969zM512 120.32c-180.973 0-327.68 146.706-327.68 327.68s146.707 327.68 327.68 327.68c180.974 0 327.68-146.707 327.68-327.68 0-86.905-34.525-170.254-95.973-231.707-61.452-61.448-144.802-95.973-231.707-95.973zM552.96 488.96h102.4c11.309 0 20.48-9.171 20.48-20.48v-40.96c0-11.309-9.171-20.48-20.48-20.48h-102.4v-102.4c0-11.309-9.171-20.48-20.48-20.48h-40.96c-11.309 0-20.48 9.171-20.48 20.48v102.4h-102.4c-11.311 0-20.48 9.171-20.48 20.48v40.96c0 11.309 9.169 20.48 20.48 20.48h102.4v102.4c0 11.311 9.171 20.48 20.48 20.48h40.96c11.309 0 20.48-9.169 20.48-20.48v-102.4z" />
<glyph unicode="&#xe91d;" glyph-name="add_event" d="M880.64 693.76c0 45.243-36.676 81.92-81.92 81.92h-40.96v61.44c0 11.311-9.171 20.48-20.48 20.48h-40.96c-11.309 0-20.48-9.169-20.48-20.48v-61.44h-327.68v61.44c0 11.311-9.169 20.48-20.48 20.48h-40.96c-11.311 0-20.48-9.169-20.48-20.48v-61.44h-40.96c-45.243 0-81.92-36.677-81.92-81.92v-532.48c0-45.244 36.677-81.92 81.92-81.92h573.44c45.244 0 81.92 36.676 81.92 81.92v532.48zM798.72 161.28h-573.44v450.56h573.44v-450.56zM634.88 422.605v-31.13c0-11.309-9.171-20.48-20.48-20.48h-66.355v-66.355c0-11.309-9.171-20.48-20.48-20.48h-31.13c-11.309 0-20.48 9.171-20.48 20.48v66.355h-66.355c-11.311 0-20.48 9.171-20.48 20.48v31.13c0 11.309 9.169 20.48 20.48 20.48h66.355v66.355c0 11.309 9.171 20.48 20.48 20.48h31.13c11.309 0 20.48-9.171 20.48-20.48v-66.355h66.355c11.309 0 20.48-9.171 20.48-20.48z" />
<glyph unicode="&#xe91e;" glyph-name="add_photo" d="M791.757 652.8h47.923c45.244 0 81.92-36.677 81.92-81.92v-368.64c0-45.244-36.676-81.92-81.92-81.92h-655.36c-45.243 0-81.92 36.676-81.92 81.92v368.64c0 45.243 36.677 81.92 81.92 81.92h47.923c21.833-0.017 42.77 8.682 58.163 24.166l62.669 62.669c23.022 23.051 54.256 36.016 86.835 36.045h144.179c32.58-0.029 63.812-12.994 86.835-36.045l62.669-62.669c15.393-15.485 36.332-24.184 58.163-24.166zM655.36 366.080c11.309 0 20.48 9.171 20.48 20.48v40.96c0 11.309-9.171 20.48-20.48 20.48h-102.4v102.4c0 11.311-9.171 20.48-20.48 20.48h-40.96c-11.309 0-20.48-9.169-20.48-20.48v-102.4h-102.4c-11.311 0-20.48-9.171-20.48-20.48v-40.96c0-11.309 9.169-20.48 20.48-20.48h102.4v-102.4c0-11.309 9.171-20.48 20.48-20.48h40.96c11.309 0 20.48 9.171 20.48 20.48v102.4h102.4z" />
<glyph unicode="&#xe91f;" glyph-name="add_square" d="M225.28 816.64h573.44c45.244 0 81.92-36.677 81.92-81.92v-573.44c0-45.244-36.676-81.92-81.92-81.92h-573.44c-45.243 0-81.92 36.676-81.92 81.92v573.44c0 45.243 36.677 81.92 81.92 81.92zM655.36 407.040c11.309 0 20.48 9.171 20.48 20.48v40.96c0 11.309-9.171 20.48-20.48 20.48h-102.4v102.4c0 11.311-9.171 20.48-20.48 20.48h-40.96c-11.309 0-20.48-9.169-20.48-20.48v-102.4h-102.4c-11.311 0-20.48-9.171-20.48-20.48v-40.96c0-11.309 9.169-20.48 20.48-20.48h102.4v-102.4c0-11.309 9.171-20.48 20.48-20.48h40.96c11.309 0 20.48 9.171 20.48 20.48v102.4h102.4z" />
<glyph unicode="&#xe920;" glyph-name="add_square_outlined" d="M798.72 816.64h-573.44c-45.243 0-81.92-36.677-81.92-81.92v-573.44c0-45.244 36.677-81.92 81.92-81.92h573.44c45.244 0 81.92 36.676 81.92 81.92v573.44c0 45.243-36.676 81.92-81.92 81.92zM798.72 161.28h-573.44v573.44h573.44v-573.44zM471.040 407.040h-102.4c-11.311 0-20.48 9.171-20.48 20.48v40.96c0 11.309 9.169 20.48 20.48 20.48h102.4v102.4c0 11.311 9.171 20.48 20.48 20.48h40.96c11.309 0 20.48-9.169 20.48-20.48v-102.4h102.4c11.309 0 20.48-9.171 20.48-20.48v-40.96c0-11.309-9.171-20.48-20.48-20.48h-102.4v-102.4c0-11.309-9.171-20.48-20.48-20.48h-40.96c-11.309 0-20.48 9.171-20.48 20.48v102.4z" />
<glyph unicode="&#xe921;" glyph-name="add_to_trash" d="M153.6 639.147l44.544-580.13c3.771-50.156 48.531-89.006 102.4-88.883h423.936c53.869-0.123 98.628 38.728 102.4 88.883l43.52 580.13h-716.8zM716.8 280.747c0-13.196-11.462-23.893-25.6-23.893h-128v-119.467c0-13.196-11.462-23.893-25.6-23.893h-51.2c-14.138 0-25.6 10.697-25.6 23.893v119.467h-128c-14.138 0-25.6 10.697-25.6 23.893v47.787c0 13.196 11.462 23.893 25.6 23.893h128v119.467c0 13.196 11.462 23.893 25.6 23.893h51.2c14.138 0 25.6-10.697 25.6-23.893v-119.467h128c14.138 0 25.6-10.697 25.6-23.893v-47.787zM896 830.293h-230.4v47.787c0 26.392-22.924 47.787-51.2 47.787h-204.8c-28.276 0-51.2-21.395-51.2-47.787v-47.787h-230.4c-14.138 0-25.6-10.697-25.6-23.893v-47.787c0-13.196 11.462-23.893 25.6-23.893h768c14.138 0 25.6 10.697 25.6 23.893v47.787c0 13.196-11.462 23.893-25.6 23.893z" />
<glyph unicode="&#xe922;" glyph-name="add_to_trash_11" d="M634.88 775.68h184.32c11.309 0 20.48-9.169 20.48-20.48v-40.96c0-11.311-9.171-20.48-20.48-20.48h-614.4c-11.311 0-20.48 9.169-20.48 20.48v40.96c0 11.311 9.169 20.48 20.48 20.48h184.32v40.96c0 22.621 18.339 40.96 40.96 40.96h163.84c22.622 0 40.96-18.339 40.96-40.96v-40.96zM225.28 611.84l35.635-497.254c3.017-42.992 38.825-76.292 81.92-76.186h339.149c43.094-0.106 78.905 33.194 81.92 76.186l34.816 497.254h-573.44zM675.84 304.64c0-11.309-9.171-20.48-20.48-20.48h-102.4v-102.4c0-11.309-9.171-20.48-20.48-20.48h-40.96c-11.309 0-20.48 9.171-20.48 20.48v102.4h-102.4c-11.311 0-20.48 9.171-20.48 20.48v40.96c0 11.309 9.169 20.48 20.48 20.48h102.4v102.4c0 11.309 9.171 20.48 20.48 20.48h40.96c11.309 0 20.48-9.171 20.48-20.48v-102.4h102.4c11.309 0 20.48-9.171 20.48-20.48v-40.96z" />
<glyph unicode="&#xe923;" glyph-name="Add-01" d="M512 65.601c-211.2 0-382.4 171.199-382.4 382.399s171.2 382.4 382.4 382.4c211.2 0 382.399-171.2 382.399-382.4s-171.199-382.399-382.399-382.399zM512 788.8c-187.2 0-340.8-153.6-340.8-340.8s153.6-340.801 340.8-340.801c187.201 0 340.801 153.6 340.801 340.801s-153.6 340.8-340.801 340.8zM308.8 470.398h406.399v-44.797h-406.399v44.797zM489.602 651.2h44.8v-406.399h-44.8v406.399z" />
<glyph unicode="&#xe924;" d="M177.315 748.106c0 0 600.099-4.309 612.254-11.799-4.454 16.205-14.104 30.499-27.471 40.688-13.363 10.189-29.706 15.708-46.51 15.71h-279.047l-205.482 64.894h-152.567c-5.826 0-11.594-1.147-16.976-3.376s-10.272-5.496-14.391-9.616c-4.119-4.119-7.386-9.009-9.616-14.391s-3.376-11.15-3.376-16.976v-363.060l79.23 265.83c7.443 9.94 17.095 18.013 28.194 23.583s23.34 8.484 35.757 8.512z" />
<glyph unicode="&#xe925;" d="M751.264 569.481c4.833 0 9.667-0.089 14.5-0.358 15.036 55.129 26.491 97.908 26.491 99.252-0.038 11.769-4.741 23.043-13.080 31.348s-19.63 12.963-31.399 12.952h-570.452c-9.722-0.009-19.173-3.197-26.913-9.079s-13.343-14.135-15.955-23.499l-93.345-337.491c-1.825-6.595-2.103-13.524-0.811-20.244s4.118-13.049 8.259-18.497c4.14-5.451 9.483-9.868 15.612-12.913s12.877-4.632 19.721-4.639h384.297c0.068 75.063 29.914 147.033 82.982 200.12 53.071 53.088 125.034 82.954 200.096 83.046z" />
<glyph unicode="&#xe926;" d="M753.579 524.643c-0.771 0.075-1.55 0.102-2.328 0.089-65.314 2.205-128.84-21.589-176.637-66.161s-75.964-106.281-78.319-171.592c-2.359-65.311 21.286-128.891 65.744-176.794s106.1-76.213 171.407-78.725c65.304-2.512 128.939 20.982 176.947 65.328 48.005 44.343 76.462 105.919 79.128 171.22s-20.678 128.99-64.908 177.101c-44.233 48.111-105.742 76.715-171.035 79.534zM908.766 241.831h-113.033v-113.033c0-11.796-4.687-23.108-13.029-31.45s-19.654-13.029-31.454-13.029c-11.796 0-23.108 4.687-31.45 13.029s-13.029 19.654-13.029 31.45v113.033h-113.121c-11.8 0-23.112 4.687-31.454 13.029s-13.029 19.657-13.029 31.454c0 11.796 4.687 23.112 13.029 31.45 8.342 8.342 19.654 13.029 31.454 13.029h113.121v113.033c0 56.218 88.962 57.938 88.962 0v-113.033h113.033c11.796 0 23.112-4.687 31.454-13.029 8.342-8.339 13.025-19.654 13.025-31.45s-4.683-23.112-13.025-31.454c-8.342-8.342-19.657-13.029-31.454-13.029z" />
<glyph unicode="&#xe927;" glyph-name="add-image" d="M653.476 203.418c1.976 2.536 3.345 5.492 4.004 8.639 0.659 3.151 0.591 6.407-0.201 9.523v0.003c-2.649 10.394-3.939 21.088-3.843 31.812v0.044c0 36.833 14.633 72.158 40.677 98.205 26.047 26.044 61.372 40.677 98.205 40.677 2.324 0 4.687-0.184 7.257-0.386l0.147-0.010c2.406-0.191 5.014-0.396 7.619-0.406 2.843-0.177 5.693 0.198 8.393 1.109 2.761 0.932 5.308 2.406 7.492 4.332v0l0.092 0.085c2.15 1.993 3.86 4.413 5.024 7.103l-4.7 2.034c0.881 2.038 1.328 4.236 1.314 6.458h5.12v309.919c0 26.819-10.653 52.539-29.617 71.503s-44.684 29.617-71.503 29.617h-577.28c-26.819 0-52.539-10.654-71.503-29.617s-29.617-44.684-29.617-71.503v-426.239c0-26.819 10.654-52.541 29.617-71.503 18.964-18.964 44.684-29.617 71.503-29.617h485.134c3.226 0.007 6.403 0.754 9.298 2.181 2.884 1.423 5.403 3.488 7.369 6.035zM653.476 203.418l-4.041 3.144M653.476 203.418c0.007 0.007 0.010 0.014 0.017 0.020l-4.058 3.123M649.434 206.561c1.495 1.922 2.533 4.161 3.031 6.547 0.502 2.383 0.447 4.85-0.15 7.212l-15.52-19.999c2.444 0.003 4.854 0.57 7.045 1.652s4.103 2.649 5.594 4.588zM611.195 253.44v-0.014c0.014-5.335 0.256-10.67 0.724-15.985h-460.244c-15.616 0-30.592 6.202-41.634 17.244s-17.246 26.020-17.246 41.636v426.239c0 15.616 6.203 30.592 17.246 41.634s26.018 17.246 41.634 17.246h576.642c15.616 0 30.59-6.203 41.632-17.246s17.248-26.018 17.248-41.634v-288.074c-46.182-1.304-90.194-20.217-122.952-52.975-33.966-33.966-53.050-80.036-53.050-128.072zM71.689 342.562h0.001c4.296 0.010 8.487 1.328 12.013 3.782 0.009 0.007 0.017 0.014 0.026 0.017l238.758 162.437 105.259-75.206c4.079-2.908 9.059-4.27 14.049-3.843s9.663 2.608 13.193 6.161c0 0 0.003 0.003 0.003 0.003l153.139 153.139 186.723-173.189c4.157-3.369 9.438-5.035 14.773-4.663 5.338 0.372 10.336 2.758 13.984 6.673 3.645 3.915 5.67 9.069 5.666 14.418-0.007 5.352-2.045 10.499-5.7 14.408l0.010 0.010-0.266 0.242-201.083 186.69c-3.936 3.782-9.182 5.896-14.64 5.896-5.478 0-10.738-2.128-14.677-5.934v0l-154.918-154.914-102.767 73.359c-3.535 2.451-7.735 3.765-12.038 3.765-4.294 0-8.486-1.307-12.017-3.751-0.007-0.003-0.015-0.010-0.022-0.014l-251.297-170.837c-0.005-0.003-0.009-0.007-0.014-0.010-3.753-2.526-6.596-6.192-8.109-10.455v0c-1.516-4.27-1.618-8.912-0.292-13.244s4.009-8.124 7.654-10.813c3.645-2.69 8.059-4.137 12.589-4.127zM182.912 592.507c11.735-7.84 25.532-12.025 39.646-12.025 18.926 0 37.077 7.516 50.459 20.9s20.901 31.534 20.901 50.46c0 14.114-4.185 27.91-12.026 39.646s-18.986 20.881-32.025 26.283c-13.039 5.401-27.388 6.814-41.23 4.061s-26.558-9.55-36.538-19.53c-9.98-9.98-16.776-22.695-19.529-36.538s-1.34-28.19 4.061-41.23c5.401-13.038 14.548-24.186 26.283-32.026zM206.379 676.054c4.789 3.2 10.419 4.908 16.178 4.908 7.723 0 15.13-3.068 20.591-8.529s8.529-12.868 8.529-20.591c0-5.759-1.708-11.389-4.907-16.178s-7.748-8.521-13.069-10.725c-5.321-2.204-11.176-2.781-16.825-1.657s-10.837 3.897-14.91 7.969c-4.072 4.072-6.846 9.261-7.969 14.91s-0.547 11.504 1.657 16.825c2.204 5.321 5.936 9.869 10.725 13.069zM611.195 253.46c-0.109-14.172 1.604-28.3 5.103-42.035 9.257-39.68 31.706-75.049 63.672-100.318 31.973-25.272 71.578-38.95 112.333-38.786 46.657-0.358 91.651 17.306 125.607 49.306 33.963 32.007 54.258 75.889 56.658 122.498 2.4 46.606-13.285 92.341-43.779 127.665-30.474 35.301-73.39 57.487-119.811 61.938-6.229 0.833-12.561 0.833-18.5 0.833h-0.164c-48.036 0-94.106-19.084-128.072-53.050-33.963-33.963-53.043-80.022-53.047-128.051zM611.195 253.46c0 0.007 0 0.014 0 0.020l5.12-0.041M611.195 253.46c0-0.007 0-0.014 0-0.020h5.12M616.315 253.44c-0.109-13.756 1.556-27.471 4.96-40.8l189.119 215.999c-5.919 0.802-12.001 0.802-18.080 0.802-46.677 0-91.443-18.545-124.45-51.552-33.007-33.004-51.548-77.773-51.548-124.45zM653.431 253.396h0.003v0.044c0 36.833 14.63 72.158 40.677 98.205 26.044 26.044 61.368 40.677 98.202 40.677 4.922 0 9.748-0.311 14.199-1.051l-0.003-0.010 0.317-0.031c25.368-2.625 49.524-12.186 69.82-27.631 20.292-15.445 35.942-36.181 45.23-59.935 9.291-23.75 11.858-49.603 7.427-74.718-4.434-25.115-15.698-48.524-32.556-67.663s-38.659-33.263-63.017-40.827c-24.354-7.567-50.323-8.277-75.056-2.058-24.736 6.216-47.278 19.125-65.161 37.311-17.882 18.183-30.413 40.943-36.215 65.775v0l-0.024 0.099c-2.645 10.394-3.936 21.088-3.843 31.812zM777.383 174.507c3.959-3.959 9.332-6.185 14.933-6.185s10.974 2.225 14.933 6.185c3.963 3.959 6.188 9.332 6.188 14.933v128c0 5.601-2.225 10.974-6.188 14.933-3.959 3.963-9.332 6.188-14.933 6.188s-10.974-2.225-14.933-6.188c-3.963-3.959-6.185-9.332-6.185-14.933v-128c0-5.601 2.222-10.974 6.185-14.933zM728.317 232.322h128c5.601 0 10.974 2.225 14.933 6.185 3.963 3.959 6.188 9.332 6.188 14.933s-2.225 10.974-6.188 14.933c-3.959 3.963-9.332 6.188-14.933 6.188h-128c-5.601 0-10.974-2.225-14.933-6.188-3.963-3.959-6.185-9.332-6.185-14.933s2.222-10.974 6.185-14.933c3.959-3.959 9.332-6.185 14.933-6.185z" />
<glyph unicode="&#xe928;" glyph-name="Add-items" d="M258.505 736.598l1.624 1.979c-3.137 2.574-7.069 3.982-11.127 3.984h-90.002c-4.657 0-9.123-1.85-12.417-5.143s-5.143-7.76-5.143-12.417c0-4.657 1.85-9.123 5.143-12.417s7.76-5.143 12.417-5.143h75.602l72.7-363.558c4.928-24.354 18.116-46.257 37.333-62.010 19.217-15.749 43.284-24.381 68.13-24.433h346.235c4.659 0 9.124 1.85 12.418 5.144s5.144 7.759 5.144 12.418c0 4.656-1.85 9.124-5.144 12.414-3.294 3.294-7.759 5.144-12.418 5.144h-346.225c-16.736 0.038-32.949 5.854-45.892 16.466-12.94 10.615-21.818 25.371-25.132 41.779 0 0 0 0 0 0.003l-75.539 377.634c0 0 0 0 0 0-0.795 3.979-2.944 7.56-6.082 10.134l-1.624-1.979zM258.505 736.598c2.68-2.199 4.515-5.258 5.195-8.657l-27-17.94h-77.7c-3.978 0-7.793 1.58-10.607 4.393s-4.393 6.628-4.393 10.607c0 3.978 1.58 7.794 4.393 10.607s6.628 4.394 10.607 4.394h90c3.467-0.002 6.825-1.205 9.505-3.403zM621.442 154.999c0-42.752 34.806-77.558 77.558-77.558 42.755 0 77.561 34.806 77.561 77.558 0 42.755-34.806 77.561-77.561 77.561-42.752 0-77.558-34.806-77.558-77.561zM656.561 154.999c0 23.398 19.043 42.441 42.438 42.441 23.398 0 42.441-19.043 42.441-42.441 0-23.395-19.043-42.438-42.441-42.438-23.395 0-42.438 19.043-42.438 42.438zM321.44 154.999c0-42.752 34.806-77.558 77.562-77.558 42.752 0 77.558 34.806 77.558 77.558 0 42.755-34.806 77.561-77.558 77.561-42.755 0-77.562-34.806-77.562-77.561zM356.56 154.999c0 23.398 19.043 42.441 42.441 42.441 23.395 0 42.438-19.043 42.438-42.441 0-23.395-19.043-42.438-42.438-42.438-23.398 0-42.441 19.043-42.441 42.438zM736.020 377.44h0.003c18.896 0.024 37.137 6.939 51.306 19.442 14.169 12.506 23.289 29.751 25.661 48.497l0.007 0.065c0.461 4.564-0.881 9.124-3.738 12.708-2.86 3.587-7.008 5.912-11.558 6.482-4.547 0.57-9.141-0.666-12.793-3.437s-6.076-6.861-6.752-11.397v0l-0.007-0.058c-2.659-21.19-20.774-37.181-42.131-37.181h-412.020c-4.657 0-9.124-1.85-12.417-5.14-3.293-3.294-5.143-7.762-5.143-12.418 0-4.659 1.85-9.124 5.143-12.418s7.76-5.144 12.417-5.144h412.020zM279 617.441h210.001c4.656 0 9.124 1.85 12.418 5.143 3.29 3.293 5.14 7.76 5.14 12.417s-1.85 9.124-5.14 12.417c-3.294 3.293-7.762 5.143-12.418 5.143h-210.001c-4.657 0-9.124-1.85-12.417-5.143s-5.144-7.76-5.144-12.417c0-4.657 1.85-9.123 5.143-12.417s7.76-5.143 12.417-5.143zM531.439 635.001c0-92.404 75.158-167.558 167.561-167.558 92.406 0 167.561 75.155 167.561 167.558s-75.155 167.56-167.561 167.56c-92.402 0-167.561-75.156-167.561-167.56zM566.559 635.001c0 73.016 59.426 132.44 132.441 132.44 73.018 0 132.441-59.424 132.441-132.44s-59.423-132.439-132.441-132.439c-73.015 0-132.441 59.423-132.441 132.439zM639 617.441h119.999c4.659 0 9.124 1.85 12.418 5.143s5.144 7.76 5.144 12.417c0 4.657-1.85 9.123-5.144 12.417s-7.759 5.143-12.418 5.143h-119.999c-4.656 0-9.124-1.85-12.418-5.143-3.29-3.293-5.144-7.76-5.144-12.417s1.853-9.124 5.144-12.417c3.294-3.293 7.762-5.143 12.418-5.143zM686.582 562.586c3.294-3.294 7.762-5.144 12.418-5.144 4.659 0 9.124 1.85 12.418 5.144 3.294 3.29 5.144 7.759 5.144 12.414v120.001c0 4.657-1.85 9.123-5.144 12.417s-7.759 5.143-12.418 5.143c-4.656 0-9.124-1.85-12.418-5.143-3.29-3.293-5.14-7.76-5.14-12.417v-120.001c0-4.656 1.85-9.124 5.14-12.414z" />
<glyph unicode="&#xe929;" glyph-name="add-user" d="M209.598 732.16c0-116.48 95.041-211.521 211.84-211.521 116.801 0 211.842 95.041 211.842 211.521 0 116.801-95.041 211.84-211.842 211.84-116.799 0-211.84-95.039-211.84-211.84zM53.437 128v-64c0-61.761 50.241-111.998 112-111.998h512c61.761 0 112.002 50.237 112.002 111.998v64c0 202.882-165.12 367.998-368.002 367.998-202.879 0-368-165.117-368-367.998zM870.82 468.845v51.719h51.719c26.498 0 47.998 21.497 47.998 47.998s-21.501 48.002-47.998 48.002h-51.719v51.717c0 26.5-21.501 48-48.002 48s-47.998-21.5-47.998-48v-51.717h-51.688c-26.501 0-48.002-21.501-48.002-48.002s21.501-47.998 48.002-47.998h51.688v-51.719c0-26.501 21.497-48.002 47.998-48.002s48.002 21.501 48.002 48.002z" />
<glyph unicode="&#xe92b;" glyph-name="adjust" d="M512 857.6c-226.216 0-409.6-183.384-409.6-409.6 0-226.214 183.384-409.6 409.6-409.6 226.214 0 409.6 183.386 409.6 409.6 0 108.632-43.155 212.816-119.968 289.631-76.816 76.815-180.998 119.969-289.632 119.969zM512 120.32c-180.973 0-327.68 146.706-327.68 327.68s146.707 327.68 327.68 327.68c180.974 0 327.68-146.707 327.68-327.68 0-86.905-34.525-170.254-95.973-231.707-61.452-61.448-144.802-95.973-231.707-95.973zM512 325.12c67.867 0 122.88 55.013 122.88 122.88s-55.013 122.88-122.88 122.88c-67.867 0-122.88-55.013-122.88-122.88s55.013-122.88 122.88-122.88z" />
<glyph unicode="&#xe92c;" d="M812.882 806.4c0-6.615-13.691-88.727-13.691-88.727l-20.716-303.141c0 0-16.275-80.162-16.275-85.999h-627.361c-20.345 0-39.21 8.953-51.417 24.904-12.207 15.957-16.646 37.359-12.207 57.982l52.157 254.112c7.028 35.411 37.36 63.822 71.392 68.099l617.742 72.38c0.003 0.389 0.003 0.389 0.375 0.389z" />
<glyph unicode="&#xe92d;" d="M949.644 925.867h-68.468c-51.449 0-88.402-56.656-107.244-127.376l-13.042-91.212-20.285-313.014-15.578-88.805c-17.033-41.387-44.564-47.415-66.666-47.415h-584.012c-22.1 0-40.215-20.091-40.215-44.599 0-24.511 18.115-44.203 40.215-44.203h584.016c82.244 0 139.124 60.273 156.512 163.14 0 0.396 0 0.396 0 0.396 1.085 6.83 2.174 13.664 2.901 20.896 0.72 6.025 1.447 12.455 1.809 18.883l22.463 343.154c5.076 74.738 31.519 117.732 39.13 121.349h68.468c22.105 0 40.219 19.689 40.219 44.2s-18.118 44.606-40.223 44.606z" />
<glyph unicode="&#xe92e;" d="M321.417 571.805v-110.643c0-19.838-16.977-35.482-38.461-35.482-21.481 0-38.458 15.643-38.458 35.482v110.643c0 19.842 16.977 35.485 38.458 35.485 21.485 0 38.461-15.643 38.461-35.485zM472.129 571.805v-110.643c0-19.838-16.63-35.482-38.11-35.482s-38.461 15.643-38.461 35.482v110.643c0 19.842 16.981 35.485 38.461 35.485s38.11-15.643 38.11-35.485zM623.189 571.805v-110.643c0-19.838-16.63-35.482-38.11-35.482-21.484 0-38.458 15.643-38.458 35.482v110.643c0 19.842 16.975 35.485 38.458 35.485 21.48 0 38.11-15.643 38.11-35.485zM223.713 54.832c0-46.544-34.647-84.698-77.263-84.698-42.269 0-76.916 38.154-76.916 84.698 0 46.93 34.647 84.702 76.916 84.702 42.616 0 77.263-37.772 77.263-84.702zM706.69 54.832c0-46.544-34.649-84.698-76.916-84.698-42.615 0-77.264 38.154-77.264 84.698 0 46.93 34.649 84.702 77.264 84.702 42.267 0 76.916-37.772 76.916-84.702z" />
<glyph unicode="&#xe92f;" glyph-name="Adobe-Acrobate" d="M111.515 87.040v0c-3.253 15.002 0.030 31.229 9.351 48.415 9.315 17.176 24.708 35.41 45.865 54.528 42.236 38.168 107.705 80.108 194.55 124.426 38.741 72.591 74.011 154.713 99.407 231.625-25.436 51.125-45.001 102.546-54.839 148.135-9.858 45.707-10.008 85.857 3.85 113.952 13.213 26.833 38.205 41.585 70.028 41.585 25.836 0 47.101-12.787 59.727-35.854 9.858-17.981 14.575-41.702 14.575-72.319 0-48.107-13.408-115.801-36.168-190.161 22.064-42.025 49.2-85.35 80.777-126.495 3.072-3.977 6.11-7.851 9.219-11.636 151.921 36.618 231.393-1.352 256.236-17.34h0.003c31.365-20.217 49.609-48.695 49.609-78.336 0-38.383-20.617-67.475-56.552-79.681v0c-31.669-10.745-75.049-7.267-122.262 11.571-47.015 18.76-97.987 52.804-145.302 103.543-35.205-10.319-73.588-24.566-115.087-43.421l-362.986-222.539zM111.515 87.040c5.48-25.289 28.222-40.745 58.664-40.745 38.637 0 79.085 25.487 118.48 66.621 39.356 41.093 77.943 98.099 112.981 161.963 22.214 11.117 46.469 22.695 72.861 34.7l-362.986-222.539zM839.956 288.451v0c-17.681-6.004-46.217-4.147-80.213 8.564-33.215 12.421-71.434 35.14-109.418 70.632 88.443 16.463 150.801 5.311 184.887-16.681h0.003c7.967-5.13 14.268-10.858 18.558-16.637 4.304-5.792 6.523-11.54 6.523-16.763 0-7.871-1.618-13.92-4.878-18.575-3.256-4.649-8.284-8.107-15.462-10.54zM452.355 358.188v-0.003c-3.755-1.707-7.472-3.417-11.155-5.11 20.036 42.742 38.205 86.835 53.835 130.007 17.831-29.959 37.219-58.982 57.341-85.63-30.826-10.022-64.092-22.944-100.021-39.264zM170.179 99.707c-2.141 0-3.813 0.167-5.065 0.335-0.472 0.065-0.876 0.126-1.24 0.181-0.035 0.007-0.070 0.010-0.105 0.017 0.371 2.656 1.925 6.881 5.536 12.687 4.332 6.967 11.486 15.995 22.582 26.969 21.43 21.19 57.467 49.538 115.994 84.214-24.022-36.188-48.182-66.673-71.145-88.419-24.316-23.030-46.997-35.983-66.556-35.983zM456.062 785.267l1.529-0.757c1.567 3.168 3.499 6.048 6.738 8.171 3.246 2.125 7.991 3.613 15.398 3.613 2.874 0 5.1-0.355 7.066-1.454 1.963-1.096 3.864-3.048 5.837-6.625 3.55-6.533 7.991-19.989 7.991-46.681 0-32.424-6.12-72.338-16.947-116.324-14.203 35.539-23.856 68.211-28.477 95.41-4.85 28.535-4.099 50.708 2.396 63.893l-1.529 0.754z" />
<glyph unicode="&#xe930;" glyph-name="agenda_view" d="M266.24 857.6h491.52c45.244 0 81.92-36.677 81.92-81.92v-204.8c0-45.244-36.676-81.92-81.92-81.92h-491.52c-45.243 0-81.92 36.676-81.92 81.92v204.8c0 45.243 36.677 81.92 81.92 81.92zM839.68 120.32v204.8c0 45.244-36.676 81.92-81.92 81.92h-491.52c-45.243 0-81.92-36.676-81.92-81.92v-204.8c0-45.244 36.677-81.92 81.92-81.92h491.52c45.244 0 81.92 36.676 81.92 81.92z" />
<glyph unicode="&#xe931;" glyph-name="agenda_view_outlined" d="M266.24 857.6c-45.243 0-81.92-36.677-81.92-81.92v-204.8c0-45.244 36.677-81.92 81.92-81.92h491.52c45.244 0 81.92 36.676 81.92 81.92v204.8c0 45.243-36.676 81.92-81.92 81.92h-491.52zM757.76 775.68v-204.8h-491.52v204.8h491.52zM266.24 407.040h491.52c45.244 0 81.92-36.676 81.92-81.92v-204.8c0-45.244-36.676-81.92-81.92-81.92h-491.52c-45.243 0-81.92 36.676-81.92 81.92v204.8c0 45.244 36.677 81.92 81.92 81.92zM757.76 120.32v204.8h-491.52v-204.8h491.52z" />
<glyph unicode="&#xe932;" d="M768.795 891.733h-495.878v-887.467h682.817v703.020l-186.938 184.446z" />
<glyph unicode="&#xe933;" d="M770.761 891.733v-183.281h184.972l-184.972 183.281z" />
<glyph unicode="&#xe934;" d="M792.6 490.445c1.58-1.031-44.346-51.937-44.346-51.937l59.215-45.681-54.463-39.615-141.633 133.376-59.511-20.163-41.182-128.72-88.211-182.955 216.262-150.484h317.003v357.455c0 0-164.714 129.754-163.133 128.724z" />
<glyph unicode="&#xe935;" d="M515.017 248.084l-29.007-93.897h-63.519l108.032 331.353h78.52l109.53-331.353h-66.017l-30.508 93.897h-107.032zM611.546 293.806l-26.508 81.609c-6.506 20.156-12.005 42.769-17.005 61.942h-1.004c-5.001-19.173-10.001-42.278-16.002-61.942l-26.010-81.609h86.528zM808.598 460.465c0-18.19-13.503-32.447-35.011-32.447-20.507 0-34.007 14.257-34.007 32.447 0 18.681 14.001 32.939 34.509 32.939 21.002 0 34.007-14.257 34.509-32.939zM743.079 154.187v239.418h62.017v-239.418h-62.017z" />
<glyph unicode="&#xe936;" d="M68.267 847.359h641.495v-208.362h-641.495v208.362z" />
<glyph unicode="&#xe937;" d="M371.685 712.688l-8.861-34.082h-29.167l38.028 132.778h36.919l38.581-132.778h-30.276l-9.598 34.082h-35.625zM403.251 735.144l-7.755 28.171c-2.215 7.879-4.427 17.73-6.274 25.609h-0.369c-1.847-7.879-3.693-17.927-5.724-25.609l-7.383-28.171h27.505zM480.963 811.386v-132.779h-28.245v132.779h28.245z" />
<glyph unicode="&#xe938;" glyph-name="airbag_deactivated" d="M348.16 816.64c54.316 0 106.41-21.577 144.814-59.985 38.408-38.407 59.986-90.499 59.986-144.815 0-113.107-91.693-204.8-204.8-204.8s-204.8 91.693-204.8 204.8c0 113.108 91.692 204.8 204.8 204.8zM798.72 816.64c-45.244 0-81.92-36.677-81.92-81.92s36.676-81.92 81.92-81.92c45.244 0 81.92 36.677 81.92 81.92s-36.676 81.92-81.92 81.92zM376.832 254.259c20.215 43.262 63.66 70.894 111.411 70.861h95.437l81.92-81.92h10.24c24.871 0.020 49.152 7.594 69.632 21.709l128.614-129.024c3.961-3.715 6.205-8.905 6.205-14.336s-2.245-10.621-6.205-14.336l-21.709-21.709c-3.715-3.961-8.905-6.205-14.336-6.205s-10.621 2.245-14.336 6.205l-158.515 157.696h-163.43c-23.953 0.082-45.74-13.853-55.706-35.635l-54.477-116.326c-3.247-7.262-10.477-11.923-18.432-11.878h-45.466c-7.051-0.176-13.678 3.363-17.453 9.318-3.776 5.96-4.148 13.464-0.979 19.763l67.584 145.818zM798.72 611.84c-31.752-0.006-60.641-18.362-74.138-47.104l-89.702-190.054 109.773-109.773c17.936 12.284 32.113 29.295 40.96 49.152l84.787 181.862c11.379 24.904 9.564 53.846-4.837 77.131-14.397 23.287-39.481 37.84-66.843 38.786zM452.26 550.4c0 5.431-2.245 10.62-6.205 14.336l-47.104 47.104 47.104 47.104c3.961 3.716 6.205 8.905 6.205 14.336s-2.245 10.62-6.205 14.336l-22.118 22.118c-3.716 3.96-8.905 6.206-14.336 6.206s-10.62-2.246-14.336-6.206l-47.104-47.104-47.104 47.104c-3.716 3.96-8.905 6.206-14.336 6.206s-10.62-2.246-14.336-6.206l-22.118-22.118c-3.96-3.716-6.206-8.905-6.206-14.336s2.246-10.62 6.206-14.336l47.104-47.104-47.104-47.104c-3.96-3.716-6.206-8.905-6.206-14.336s2.246-10.621 6.206-14.336l22.118-22.118c3.716-3.961 8.905-6.205 14.336-6.205s10.62 2.245 14.336 6.205l47.104 47.104 47.104-47.104c3.716-3.961 8.905-6.205 14.336-6.205s10.62 2.245 14.336 6.205l22.118 22.118c3.961 3.715 6.205 8.905 6.205 14.336z" />
<glyph unicode="&#xe939;" glyph-name="airbag_warning" d="M348.16 816.64c-113.108 0-204.8-91.692-204.8-204.8s91.692-204.8 204.8-204.8c113.107 0 204.8 91.693 204.8 204.8 0 54.316-21.578 106.408-59.986 144.815-38.404 38.408-90.498 59.985-144.814 59.985zM716.8 734.72c0 45.243 36.676 81.92 81.92 81.92s81.92-36.677 81.92-81.92c0-45.243-36.676-81.92-81.92-81.92s-81.92 36.677-81.92 81.92zM488.243 325.12c-47.751 0.033-91.197-27.599-111.411-70.861l-67.584-145.818c-3.169-6.3-2.798-13.804 0.979-19.763 3.776-5.956 10.402-9.495 17.453-9.318h45.466c7.955-0.045 15.185 4.616 18.432 11.878l54.477 116.326c9.966 21.783 31.752 35.717 55.706 35.635h163.43l158.925-157.696c3.715-3.961 8.905-6.205 14.336-6.205s10.621 2.245 14.336 6.205l21.709 21.709c3.961 3.715 6.205 8.905 6.205 14.336s-2.245 10.621-6.205 14.336l-128.614 129.024c-20.595-14.197-45.027-21.77-70.042-21.709h-10.24l-81.92 81.92h-95.437zM724.582 564.736c13.496 28.742 42.385 47.098 74.138 47.104 27.361-0.946 52.445-15.499 66.843-38.786 14.402-23.285 16.216-52.227 4.837-77.131l-84.787-181.862c-8.847-19.857-23.024-36.868-40.96-49.152l-109.773 109.773 89.702 190.054z" />
<glyph unicode="&#xe93a;" glyph-name="airdrop" d="M921.6 406.172c-0.029-100.938-37.528-198.296-105.267-273.293-8.151-8.102-21.34-8.102-29.491 0l-14.746 14.705c-7.094 7.909-7.094 19.87 0 27.779 125.030 139.145 117.248 352.023-17.621 481.713-134.865 129.691-348.448 129.691-483.313 0s-142.652-342.568-17.62-481.713c7.093-7.909 7.093-19.87 0-27.779l-14.746-14.705c-8.152-8.102-21.339-8.102-29.491 0-123.476 135.086-141.942 335.544-45.212 490.811s285.106 227.544 461.234 176.969c176.128-50.575 297.132-211.69 296.272-394.487zM512 692.133c-112.083 0.144-213.974-64.863-260.832-166.412s-30.090-221.016 42.924-305.832c3.897-4.039 9.144-6.509 14.746-6.943 5.793-0.070 11.382 2.13 15.565 6.128l14.336 14.295c7.285 7.836 7.285 19.948 0 27.779-77.185 91.050-69.622 226.374 17.231 308.304s222.749 81.929 309.601 0c86.856-81.93 94.417-217.254 17.232-308.304-7.287-7.832-7.287-19.943 0-27.779l14.336-14.295c4.182-3.998 9.773-6.197 15.565-6.128 5.603 0.434 10.85 2.904 14.746 6.943 72.729 84.476 89.682 203.379 43.442 304.726-46.236 101.345-147.251 166.71-258.892 167.518zM595.968 320.795c-6.943 7.070-7.807 18.084-2.048 26.145 30.114 42.398 23.511 100.59-15.344 135.205-38.855 34.611-97.575 34.611-136.43 0-38.855-34.615-45.459-92.807-15.344-135.205 5.759-8.061 4.895-19.075-2.048-26.145l-14.746-14.709c-4.245-4.121-10.071-6.205-15.974-5.718-5.913 0.315-11.352 3.33-14.746 8.172-50.695 67.412-41.675 162.218 20.827 218.923 62.502 56.701 157.988 56.701 220.489 0 62.505-56.705 71.524-151.511 20.828-218.923-3.391-4.841-8.831-7.856-14.746-8.172-5.902-0.487-11.731 1.597-15.974 5.718l-14.746 14.709zM471.040 406.172c0-22.561 18.338-40.849 40.96-40.849s40.96 18.289 40.96 40.849c0 22.565-18.338 40.854-40.96 40.854s-40.96-18.289-40.96-40.854zM521.011 283.619c8.143-0.008 15.954-3.24 21.709-8.987l152.371-151.97c3.879-3.834 6.058-9.056 6.058-14.5 0-5.448-2.179-10.67-6.058-14.504l-8.602-8.172c-3.699-3.965-8.905-6.193-14.336-6.128h-320.717c-5.431-0.066-10.638 2.163-14.336 6.128l-8.602 8.172c-7.855 8.081-7.855 20.922 0 29.004l152.781 151.97c5.755 5.747 13.566 8.978 21.709 8.987h18.022z" />
<glyph unicode="&#xe93b;" glyph-name="airplay" d="M61.44 816.64h901.12c22.622 0 40.96-18.339 40.96-40.96v-573.44c0-22.622-18.338-40.96-40.96-40.96h-122.88l-81.92 81.92h163.84v491.52h-819.2v-491.52h163.84l-81.92-81.92h-122.88c-22.622 0-40.96 18.338-40.96 40.96v573.44c0 22.621 18.338 40.96 40.96 40.96zM768.819 85.504l8.602 8.192c7.856 8.102 7.856 20.98 0 29.082l-234.701 234.291c-5.755 5.763-13.566 9.003-21.709 9.011h-18.022c-8.143-0.008-15.954-3.248-21.709-9.011l-234.701-234.291c-3.877-3.846-6.058-9.081-6.058-14.541s2.181-10.695 6.058-14.541l8.602-8.192c3.698-3.977 8.905-6.21 14.336-6.144h484.966c5.431-0.066 10.637 2.167 14.336 6.144z" />
<glyph unicode="&#xe93c;" glyph-name="airpods" d="M156.877 768.702c35.884 31.45 82.131 48.52 129.843 47.923 138.854 0 184.32-122.88 184.32-245.76v-307.201c0-11.309-9.171-20.48-20.48-20.48h-81.92c-11.311 0-20.48 9.171-20.48 20.48v225.28h-61.44c-47.491-0.455-93.516 16.441-129.434 47.514-8.838 7.766-13.912 18.956-13.926 30.721v171.213c0.027 11.558 4.936 22.567 13.517 30.31zM471.040 120.304v20.48c0 11.313-9.171 20.48-20.48 20.48h-81.92c-11.311 0-20.48-9.167-20.48-20.48v-20.48c0-22.622 18.339-40.96 40.96-40.96h40.96c22.622 0 40.96 18.338 40.96 40.96zM655.36 161.264h-81.92c-11.309 0-20.48-9.167-20.48-20.48v-20.48c0-22.622 18.338-40.96 40.96-40.96h40.96c22.622 0 40.96 18.338 40.96 40.96v20.48c0 11.313-9.171 20.48-20.48 20.48zM737.28 816.625c47.71 0.596 93.958-16.473 129.843-47.923 8.581-7.744 13.488-18.752 13.517-30.31v-171.213c0.102-11.907-4.981-23.271-13.926-31.131-35.975-30.925-81.994-47.673-129.434-47.104h-61.44v-225.28c0-11.309-9.171-20.48-20.48-20.48h-81.92c-11.309 0-20.48 9.171-20.48 20.48v307.201c0 122.88 45.466 245.76 184.32 245.76z" />
<glyph unicode="&#xe93d;" glyph-name="alarm" d="M512 789.333c-211.954 0-383.778-171.923-383.778-384s171.824-384 383.778-384c211.958 0 383.782 171.923 383.782 384s-171.824 384-383.782 384zM512 106.667c-164.854 0-298.494 133.717-298.494 298.667s133.64 298.667 298.494 298.667c164.857 0 298.496-133.717 298.496-298.667s-133.639-298.667-298.496-298.667zM296.232 829.44c1.871 2.1 2.796 4.877 2.558 7.68-0.178 3.098-1.555 6.006-3.838 8.107-50.881 42.275-125.58 38.776-172.29-8.072s-50.032-121.598-7.66-172.408c2.168-2.128 5.066-3.348 8.102-3.413 2.864-0.124 5.648 0.959 7.676 2.987l165.452 165.12zM810.496 874.667c-29.891 0.058-58.856-10.358-81.872-29.44-2.284-2.101-3.659-5.008-3.837-8.107-0.126-2.865 0.959-5.651 2.983-7.68l165.451-165.547c2.028-2.027 4.813-3.111 7.677-2.987 3.096 0.178 6.004 1.555 8.103 3.84 31.788 38.187 38.612 91.333 17.504 136.32-21.111 44.987-66.338 73.681-116.009 73.6zM549.526 420.693v176.64c0 11.783-9.544 21.333-21.32 21.333h-32.41c-11.776 0-21.32-9.551-21.32-21.333v-198.827c0.208-5.598 2.488-10.919 6.397-14.933l140.291-140.373c4.004-4.038 9.455-6.311 15.138-6.311 5.687 0 11.134 2.273 15.138 6.311l22.6 22.613c4.038 4.007 6.308 9.458 6.308 15.145 0 5.69-2.27 11.141-6.308 15.148l-124.515 124.587z" />
<glyph unicode="&#xe93e;" glyph-name="alarm_11" d="M307.317 821.553c0.228-2.691-0.66-5.357-2.456-7.373l-158.834-158.515c-1.946-1.946-4.619-2.986-7.369-2.867-2.915 0.063-5.696 1.235-7.778 3.277-40.677 48.778-37.489 120.537 7.354 165.512s116.552 48.334 165.399 7.749c2.192-2.017 3.513-4.808 3.684-7.782zM512 775.678c-203.478 0-368.429-165.046-368.429-368.642 0-203.592 164.951-368.64 368.429-368.64s368.427 165.048 368.427 368.64c0 203.596-164.95 368.642-368.427 368.642zM512 120.316c-158.26 0-286.556 128.369-286.556 286.72 0 158.353 128.295 286.722 286.556 286.722s286.556-128.369 286.556-286.722c0-158.351-128.295-286.72-286.556-286.72zM798.556 857.598c-28.697 0.056-56.504-9.943-78.598-28.262-2.191-2.017-3.514-4.808-3.686-7.782-0.119-2.751 0.922-5.425 2.867-7.373l158.835-158.925c1.946-1.946 4.62-2.986 7.369-2.867 2.97 0.171 5.759 1.493 7.778 3.686 30.515 36.659 37.065 87.68 16.802 130.867-20.267 43.187-63.685 70.733-111.366 70.656zM548.024 591.358v-169.576l119.534-119.603c3.875-3.842 6.054-9.077 6.054-14.541 0-5.46-2.179-10.695-6.054-14.541l-21.697-21.709c-3.842-3.875-9.073-6.058-14.533-6.058-5.456 0-10.686 2.183-14.533 6.058l-134.681 134.758c-3.752 3.854-5.939 8.962-6.14 14.336v190.875c0 11.311 9.163 20.48 20.468 20.48h31.113c11.305 0 20.468-9.169 20.468-20.48z" />
<glyph unicode="&#xe93f;" glyph-name="alarm_add" d="M304.861 814.18c1.796 2.016 2.684 4.682 2.456 7.373-0.171 2.975-1.493 5.766-3.684 7.782-48.846 40.584-120.557 37.224-165.399-7.749s-48.030-116.734-7.354-165.512c2.082-2.042 4.863-3.214 7.778-3.277 2.749-0.119 5.422 0.921 7.369 2.867l158.834 158.515zM512 775.678c-203.478 0-368.429-165.046-368.429-368.642 0-203.592 164.951-368.64 368.429-368.64s368.427 165.048 368.427 368.64c0 203.596-164.95 368.642-368.427 368.642zM512 120.316c-158.26 0-286.556 128.369-286.556 286.72 0 158.353 128.295 286.722 286.556 286.722s286.556-128.369 286.556-286.722c0-158.351-128.295-286.72-286.556-286.72zM552.935 447.996h102.343c11.305 0 20.468-9.167 20.468-20.48v-40.96c0-11.309-9.163-20.48-20.468-20.48h-102.343v-102.4c0-11.309-9.163-20.48-20.468-20.48h-40.935c-11.305 0-20.468 9.171-20.468 20.48v102.4h-102.343c-11.304 0-20.468 9.171-20.468 20.48v40.96c0 11.313 9.164 20.48 20.468 20.48h102.343v102.4c0 11.312 9.163 20.482 20.468 20.482h40.935c11.305 0 20.468-9.169 20.468-20.482v-102.4zM719.958 829.335c22.094 18.319 49.902 28.319 78.598 28.262 47.682 0.077 91.099-27.469 111.366-70.656 20.263-43.187 13.713-94.208-16.802-130.867-2.019-2.193-4.809-3.515-7.778-3.686-2.748-0.119-5.423 0.921-7.369 2.867l-158.835 158.925c-1.946 1.948-2.986 4.622-2.867 7.373 0.172 2.975 1.495 5.766 3.686 7.782z" />
<glyph unicode="&#xe940;" glyph-name="alarm_alert" d="M138.326 821.665c45.306 45.317 117.85 48.119 166.515 6.433 2.039-2.080 3.208-4.858 3.271-7.77 0.228-2.687-0.659-5.349-2.453-7.361l-158.637-158.267c-1.944-1.943-4.614-2.981-7.359-2.863-2.911 0.063-5.689 1.232-7.768 3.272-41.676 48.677-38.874 121.239 6.432 166.556zM798.74 856.317c-28.66 0.056-56.431-9.928-78.5-28.218-2.187-2.014-3.51-4.801-3.678-7.77-0.119-2.746 0.918-5.417 2.859-7.361l158.638-158.676c1.946-1.943 4.616-2.981 7.361-2.863 2.97 0.171 5.755 1.491 7.766 3.681 30.482 36.602 37.024 87.543 16.785 130.662-20.242 43.12-63.607 70.623-111.231 70.545zM144.569 406.462c0 203.275 164.747 368.062 367.972 368.062 203.227 0 367.972-164.787 367.972-368.062s-164.745-368.062-367.972-368.062c-203.225 0-367.972 164.786-367.972 368.062zM226.34 406.462c0-158.102 128.136-286.269 286.2-286.269s286.2 128.168 286.2 286.269c0 158.103-128.135 286.271-286.2 286.271s-286.2-128.168-286.2-286.271zM534.209 406.462c5.202-0.037 9.601 3.834 10.224 8.999l16.355 131.682c0.705 5.834-1.135 11.69-5.046 16.074-3.916 4.384-9.523 6.871-15.397 6.828h-55.607c-5.874 0.043-11.481-2.445-15.397-6.828-3.912-4.384-5.751-10.239-5.046-16.074l16.355-131.682c0.627-5.165 5.022-9.036 10.224-8.999h43.336zM490.873 324.669h42.111c10.809-0.647 19.235-9.617 19.218-20.447v-40.894c0-11.293-9.155-20.447-20.443-20.447h-40.886c-11.293 0-20.443 9.155-20.443 20.447v40.894c0 11.293 9.15 20.447 20.443 20.447z" />
<glyph unicode="&#xe941;" glyph-name="alarm_off" d="M307.098 821.357c0.228-2.683-0.66-5.341-2.457-7.351l-23.747-23.687-66.327 66.977c3.537 0.405 7.108 0.405 10.645 0 28.559-0.039 56.211-10.004 78.201-28.18 2.192-2.011 3.514-4.794 3.685-7.759zM117.941 851.579c-8.099 7.832-20.97 7.832-29.069 0l-21.7-21.645c-7.852-8.079-7.852-20.917 0-28.996l38.486-38.389c-2.123-9.107-3.222-18.421-3.276-27.771-0.056-28.627 9.939-56.369 28.251-78.412 2.082-2.037 4.864-3.205 7.779-3.267 2.75-0.118 5.423 0.918 7.37 2.859l33.573 33.488 48.312-48.191c-54.611-65.488-84.459-148.010-84.342-233.195-0.688-142.442 81.196-272.458 210.145-333.664 128.947-61.207 281.745-42.586 392.124 47.788l78.201-77.595c3.715-3.949 8.905-6.189 14.332-6.189s10.617 2.241 14.332 6.189l21.697 21.643c3.961 3.707 6.205 8.88 6.205 14.295s-2.245 10.588-6.205 14.295l-756.215 756.756zM511.812 122.184c-109.38 0.020-209.212 62.14-257.327 160.125s-36.121 214.741 30.914 300.954l402.058-401.044c-50.246-38.9-112.038-60.019-175.645-60.035zM798.413 857.296c-28.701 0.056-56.513-9.914-78.61-28.18-2.191-2.011-3.514-4.794-3.686-7.759-0.119-2.743 0.922-5.409 2.867-7.351l158.859-158.458c1.946-1.94 4.62-2.977 7.369-2.859 2.974 0.171 5.763 1.489 7.778 3.676 30.523 36.551 37.077 87.422 16.806 130.483-20.267 43.060-63.693 70.525-111.383 70.448zM338.624 732.327c53.219 28.581 112.747 43.461 173.187 43.29 203.51 0 368.488-164.56 368.488-367.557 0.168-60.289-14.746-119.665-43.401-172.753l-61.415 61.26c15.167 35.222 22.97 73.163 22.929 111.493 0.057 95.912-48.103 185.461-128.246 238.454-80.146 52.993-181.588 62.367-270.129 24.962l-61.414 60.851z" />
<glyph unicode="&#xe942;" glyph-name="alarm_on" d="M307.318 821.553c0.228-2.691-0.66-5.357-2.456-7.373l-158.833-158.515c-1.947-1.946-4.619-2.986-7.369-2.867-2.915 0.063-5.696 1.235-7.778 3.277-40.677 48.778-37.489 120.537 7.353 165.512s116.553 48.334 165.399 7.749c2.192-2.017 3.513-4.808 3.684-7.782zM512 775.678c-203.477 0-368.429-165.046-368.429-368.642 0-203.592 164.951-368.64 368.429-368.64s368.427 165.048 368.427 368.64c0 203.596-164.95 368.642-368.427 368.642zM512 120.316c-158.26 0-286.556 128.369-286.556 286.72 0 158.353 128.295 286.722 286.556 286.722s286.556-128.369 286.556-286.722c0-158.351-128.295-286.72-286.556-286.72zM798.556 857.598c-28.697 0.056-56.504-9.943-78.598-28.262-2.191-2.017-3.514-4.808-3.686-7.782-0.119-2.751 0.922-5.425 2.867-7.373l158.835-158.925c1.946-1.946 4.62-2.986 7.369-2.867 2.97 0.171 5.763 1.493 7.778 3.686 30.515 36.659 37.065 87.68 16.802 130.867-20.267 43.187-63.685 70.733-111.366 70.656zM327.872 380.617c0-5.46 2.179-10.695 6.054-14.541l97.428-97.075c3.715-3.957 8.901-6.205 14.328-6.205s10.613 2.249 14.328 6.205l230.064 230.195c3.875 3.846 6.054 9.081 6.054 14.541 0 5.464-2.179 10.699-6.054 14.541l-21.697 21.709c-7.959 7.807-20.697 7.807-28.656 0l-194.040-194.15-61.404 61.030c-3.714 3.961-8.9 6.21-14.328 6.21s-10.614-2.249-14.328-6.21l-21.697-21.709c-3.875-3.842-6.054-9.077-6.054-14.541z" />
<glyph unicode="&#xe943;" glyph-name="album" d="M266.24 857.6h491.52c45.244 0 81.92-36.677 81.92-81.92v-655.36c0-45.244-36.676-81.92-81.92-81.92h-491.52c-45.243 0-81.92 36.676-81.92 81.92v655.36c0 45.243 36.677 81.92 81.92 81.92zM501.232 450.212c6.709 3.613 10.854 10.65 10.768 18.268v286.72c0 11.311-9.171 20.48-20.48 20.48h-204.8c-11.311 0-20.48-9.169-20.48-20.48v-286.72c-0.088-7.619 4.061-14.655 10.769-18.268s14.868-3.203 21.18 1.065l79.462 53.248c6.993 4.469 15.944 4.469 22.938 0l79.462-53.248c6.312-4.268 14.471-4.678 21.18-1.065z" />
<glyph unicode="&#xe944;" glyph-name="albums" d="M675.84 857.6h-491.52c-45.243 0-81.92-36.677-81.92-81.92v-655.36c0-45.244 36.677-81.92 81.92-81.92h491.52c45.244 0 81.92 36.676 81.92 81.92v655.36c0 45.243-36.676 81.92-81.92 81.92zM430.080 468.48c0.086-7.619-4.061-14.655-10.769-18.268s-14.868-3.203-21.18 1.065l-79.462 53.248c-6.993 4.469-15.944 4.469-22.938 0l-79.462-53.248c-6.312-4.268-14.471-4.678-21.18-1.065s-10.857 10.65-10.769 18.268v286.72c0 11.311 9.169 20.48 20.48 20.48h204.8c11.311 0 20.48-9.169 20.48-20.48v-286.72zM839.68 775.68h40.96c22.622 0 40.96-18.339 40.96-40.96v-573.44c0-22.622-18.338-40.96-40.96-40.96h-40.96v655.36z" />
<glyph unicode="&#xe945;" glyph-name="align_to_bottom" d="M880.64 99.84v40.96c0 11.309-9.171 20.48-20.48 20.48h-61.44v368.64c0 22.621-18.338 40.96-40.96 40.96h-163.84c-22.622 0-40.96-18.339-40.96-40.96v-368.64h-81.92v614.4c0 22.621-18.338 40.96-40.96 40.96h-163.84c-22.621 0-40.96-18.339-40.96-40.96v-614.4h-61.44c-11.311 0-20.48-9.171-20.48-20.48v-40.96c0-11.309 9.169-20.48 20.48-20.48h696.32c11.309 0 20.48 9.171 20.48 20.48z" />
<glyph unicode="&#xe946;" glyph-name="align_to_bottom_outlined" d="M880.64 99.84v40.96c0 11.309-9.171 20.48-20.48 20.48h-61.44v368.64c0 22.621-18.338 40.96-40.96 40.96h-163.84c-22.622 0-40.96-18.339-40.96-40.96v-368.64h-81.92v614.4c0 22.621-18.338 40.96-40.96 40.96h-163.84c-22.621 0-40.96-18.339-40.96-40.96v-614.4h-61.44c-11.311 0-20.48-9.171-20.48-20.48v-40.96c0-11.309 9.169-20.48 20.48-20.48h696.32c11.309 0 20.48 9.171 20.48 20.48zM634.88 488.96h81.92v-327.68h-81.92v327.68zM389.12 734.72h-81.92v-573.44h81.92v573.44z" />
<glyph unicode="&#xe947;" glyph-name="align_to_bottom_vs" d="M880.64 99.84c0-11.309-9.171-20.48-20.48-20.48h-696.32c-11.311 0-20.48 9.171-20.48 20.48v40.96c0 11.309 9.169 20.48 20.48 20.48h184.32v614.4c0 22.621 18.339 40.96 40.96 40.96h245.76c22.622 0 40.96-18.339 40.96-40.96v-614.4h184.32c11.309 0 20.48-9.171 20.48-20.48v-40.96zM430.080 161.28h163.84v573.44h-163.84v-573.44z" />
<glyph unicode="&#xe948;" glyph-name="align_to_center" d="M839.68 407.040h-286.72v81.92h163.84c22.622 0 40.96 18.338 40.96 40.96v163.84c0 22.621-18.338 40.96-40.96 40.96h-163.84v61.44c0 11.311-9.171 20.48-20.48 20.48h-40.96c-11.309 0-20.48-9.169-20.48-20.48v-61.44h-163.84c-22.621 0-40.96-18.339-40.96-40.96v-163.84c0-22.622 18.339-40.96 40.96-40.96h163.84v-81.92h-286.72c-22.621 0-40.96-18.338-40.96-40.96v-163.84c0-22.622 18.339-40.96 40.96-40.96h286.72v-61.44c0-11.309 9.171-20.48 20.48-20.48h40.96c11.309 0 20.48 9.171 20.48 20.48v61.44h286.72c22.622 0 40.96 18.338 40.96 40.96v163.84c0 22.622-18.338 40.96-40.96 40.96z" />
<glyph unicode="&#xe949;" glyph-name="align_to_center_outlined" d="M839.68 407.040h-286.72v81.92h163.84c22.622 0 40.96 18.338 40.96 40.96v163.84c0 22.621-18.338 40.96-40.96 40.96h-163.84v61.44c0 11.311-9.171 20.48-20.48 20.48h-40.96c-11.309 0-20.48-9.169-20.48-20.48v-61.44h-163.84c-22.621 0-40.96-18.339-40.96-40.96v-163.84c0-22.622 18.339-40.96 40.96-40.96h163.84v-81.92h-286.72c-22.621 0-40.96-18.338-40.96-40.96v-163.84c0-22.622 18.339-40.96 40.96-40.96h286.72v-61.44c0-11.309 9.171-20.48 20.48-20.48h40.96c11.309 0 20.48 9.171 20.48 20.48v61.44h286.72c22.622 0 40.96 18.338 40.96 40.96v163.84c0 22.622-18.338 40.96-40.96 40.96zM348.16 570.88v81.92h327.68v-81.92h-327.68zM225.28 325.12v-81.92h573.44v81.92h-573.44z" />
<glyph unicode="&#xe94a;" glyph-name="align_to_center_vs" d="M491.52 79.36c-11.309 0-20.48 9.171-20.48 20.48v184.32h-286.72c-22.621 0-40.96 18.338-40.96 40.96v245.76c0 22.621 18.339 40.96 40.96 40.96h286.72v184.32c0 11.311 9.171 20.48 20.48 20.48h40.96c11.309 0 20.48-9.169 20.48-20.48v-184.32h286.72c22.622 0 40.96-18.339 40.96-40.96v-245.76c0-22.622-18.338-40.96-40.96-40.96h-286.72v-184.32c0-11.309-9.171-20.48-20.48-20.48h-40.96zM798.72 366.080v163.84h-573.44v-163.84h573.44z" />
<glyph unicode="&#xe94b;" glyph-name="align_to_left" d="M839.68 407.040h-614.4v81.92h368.64c22.622 0 40.96 18.338 40.96 40.96v163.84c0 22.621-18.338 40.96-40.96 40.96h-368.64v61.44c0 11.311-9.169 20.48-20.48 20.48h-40.96c-11.311 0-20.48-9.169-20.48-20.48v-696.32c0-11.309 9.169-20.48 20.48-20.48h40.96c11.311 0 20.48 9.171 20.48 20.48v61.44h614.4c22.622 0 40.96 18.338 40.96 40.96v163.84c0 22.622-18.338 40.96-40.96 40.96z" />
<glyph unicode="&#xe94c;" glyph-name="align_to_left_outlined" d="M839.68 407.040h-614.4v81.92h368.64c22.622 0 40.96 18.338 40.96 40.96v163.84c0 22.621-18.338 40.96-40.96 40.96h-368.64v61.44c0 11.311-9.169 20.48-20.48 20.48h-40.96c-11.311 0-20.48-9.169-20.48-20.48v-696.32c0-11.309 9.169-20.48 20.48-20.48h40.96c11.311 0 20.48 9.171 20.48 20.48v61.44h614.4c22.622 0 40.96 18.338 40.96 40.96v163.84c0 22.622-18.338 40.96-40.96 40.96zM552.96 652.8v-81.92h-327.68v81.92h327.68zM798.72 243.2v81.92h-573.44v-81.92h573.44z" />
<glyph unicode="&#xe94d;" glyph-name="align_to_left_vs" d="M163.84 79.36c-11.311 0-20.48 9.171-20.48 20.48v696.32c0 11.311 9.169 20.48 20.48 20.48h40.96c11.311 0 20.48-9.169 20.48-20.48v-184.32h614.4c22.622 0 40.96-18.339 40.96-40.96v-245.76c0-22.622-18.338-40.96-40.96-40.96h-614.4v-184.32c0-11.309-9.169-20.48-20.48-20.48h-40.96zM798.72 366.080v163.84h-573.44v-163.84h573.44z" />
<glyph unicode="&#xe94e;" glyph-name="align_to_middle" d="M471.040 120.32v286.72h81.92v-163.84c0-22.622 18.338-40.96 40.96-40.96h163.84c22.622 0 40.96 18.338 40.96 40.96v163.84h61.44c11.309 0 20.48 9.171 20.48 20.48v40.96c0 11.309-9.171 20.48-20.48 20.48h-61.44v163.84c0 22.621-18.338 40.96-40.96 40.96h-163.84c-22.622 0-40.96-18.339-40.96-40.96v-163.84h-81.92v286.72c0 22.621-18.338 40.96-40.96 40.96h-163.84c-22.621 0-40.96-18.339-40.96-40.96v-286.72h-61.44c-11.311 0-20.48-9.171-20.48-20.48v-40.96c0-11.309 9.169-20.48 20.48-20.48h61.44v-286.72c0-22.622 18.339-40.96 40.96-40.96h163.84c22.622 0 40.96 18.338 40.96 40.96z" />
<glyph unicode="&#xe94f;" glyph-name="align_to_middle_outlined" d="M471.040 120.32v286.72h81.92v-163.84c0-22.622 18.338-40.96 40.96-40.96h163.84c22.622 0 40.96 18.338 40.96 40.96v163.84h61.44c11.309 0 20.48 9.171 20.48 20.48v40.96c0 11.309-9.171 20.48-20.48 20.48h-61.44v163.84c0 22.621-18.338 40.96-40.96 40.96h-163.84c-22.622 0-40.96-18.339-40.96-40.96v-163.84h-81.92v286.72c0 22.621-18.338 40.96-40.96 40.96h-163.84c-22.621 0-40.96-18.339-40.96-40.96v-286.72h-61.44c-11.311 0-20.48-9.171-20.48-20.48v-40.96c0-11.309 9.169-20.48 20.48-20.48h61.44v-286.72c0-22.622 18.339-40.96 40.96-40.96h163.84c22.622 0 40.96 18.338 40.96 40.96zM634.88 611.84h81.92v-327.68h-81.92v327.68zM389.12 734.72h-81.92v-573.44h81.92v573.44z" />
<glyph unicode="&#xe950;" glyph-name="align_to_middle_vs" d="M143.36 468.48c0 11.309 9.169 20.48 20.48 20.48h184.32v286.72c0 22.621 18.339 40.96 40.96 40.96h245.76c22.622 0 40.96-18.339 40.96-40.96v-286.72h184.32c11.309 0 20.48-9.171 20.48-20.48v-40.96c0-11.309-9.171-20.48-20.48-20.48h-184.32v-286.72c0-22.622-18.338-40.96-40.96-40.96h-245.76c-22.621 0-40.96 18.338-40.96 40.96v286.72h-184.32c-11.311 0-20.48 9.171-20.48 20.48v40.96zM430.080 161.28h163.84v573.44h-163.84v-573.44z" />
<glyph unicode="&#xe951;" glyph-name="align_to_right" d="M860.16 816.64h-40.96c-11.309 0-20.48-9.169-20.48-20.48v-61.44h-368.64c-22.621 0-40.96-18.339-40.96-40.96v-163.84c0-22.622 18.339-40.96 40.96-40.96h368.64v-81.92h-614.4c-22.621 0-40.96-18.338-40.96-40.96v-163.84c0-22.622 18.339-40.96 40.96-40.96h614.4v-61.44c0-11.309 9.171-20.48 20.48-20.48h40.96c11.309 0 20.48 9.171 20.48 20.48v696.32c0 11.311-9.171 20.48-20.48 20.48z" />
<glyph unicode="&#xe952;" glyph-name="align_to_right_outlined" d="M860.16 816.64h-40.96c-11.309 0-20.48-9.169-20.48-20.48v-61.44h-368.64c-22.621 0-40.96-18.339-40.96-40.96v-163.84c0-22.622 18.339-40.96 40.96-40.96h368.64v-81.92h-614.4c-22.621 0-40.96-18.338-40.96-40.96v-163.84c0-22.622 18.339-40.96 40.96-40.96h614.4v-61.44c0-11.309 9.171-20.48 20.48-20.48h40.96c11.309 0 20.48 9.171 20.48 20.48v696.32c0 11.311-9.171 20.48-20.48 20.48zM471.040 570.88v81.92h327.68v-81.92h-327.68zM225.28 325.12v-81.92h573.44v81.92h-573.44z" />
<glyph unicode="&#xe953;" glyph-name="align_to_right_vs" d="M860.16 816.64c11.309 0 20.48-9.169 20.48-20.48v-696.32c0-11.309-9.171-20.48-20.48-20.48h-40.96c-11.309 0-20.48 9.171-20.48 20.48v184.32h-614.4c-22.621 0-40.96 18.338-40.96 40.96v245.76c0 22.621 18.339 40.96 40.96 40.96h614.4v184.32c0 11.311 9.171 20.48 20.48 20.48h40.96zM798.72 366.080v163.84h-573.44v-163.84h573.44z" />
<glyph unicode="&#xe954;" glyph-name="align_to_top" d="M860.16 816.64h-696.32c-11.311 0-20.48-9.169-20.48-20.48v-40.96c0-11.311 9.169-20.48 20.48-20.48h61.44v-614.4c0-22.622 18.339-40.96 40.96-40.96h163.84c22.622 0 40.96 18.338 40.96 40.96v614.4h81.92v-368.64c0-22.622 18.338-40.96 40.96-40.96h163.84c22.622 0 40.96 18.338 40.96 40.96v368.64h61.44c11.309 0 20.48 9.169 20.48 20.48v40.96c0 11.311-9.171 20.48-20.48 20.48z" />
<glyph unicode="&#xe955;" glyph-name="align_to_top_outlined" d="M860.16 816.64h-696.32c-11.311 0-20.48-9.169-20.48-20.48v-40.96c0-11.311 9.169-20.48 20.48-20.48h61.44v-614.4c0-22.622 18.339-40.96 40.96-40.96h163.84c22.622 0 40.96 18.338 40.96 40.96v614.4h81.92v-368.64c0-22.622 18.338-40.96 40.96-40.96h163.84c22.622 0 40.96 18.338 40.96 40.96v368.64h61.44c11.309 0 20.48 9.169 20.48 20.48v40.96c0 11.311-9.171 20.48-20.48 20.48zM634.88 734.72h81.92v-327.68h-81.92v327.68zM389.12 734.72h-81.92v-573.44h81.92v573.44z" />
<glyph unicode="&#xe956;" glyph-name="align_to_top_vs" d="M143.36 796.16c0 11.311 9.169 20.48 20.48 20.48h696.32c11.309 0 20.48-9.169 20.48-20.48v-40.96c0-11.311-9.171-20.48-20.48-20.48h-184.32v-614.4c0-22.622-18.338-40.96-40.96-40.96h-245.76c-22.621 0-40.96 18.338-40.96 40.96v614.4h-184.32c-11.311 0-20.48 9.169-20.48 20.48v40.96zM430.080 161.28h163.84v573.44h-163.84v-573.44z" />
<glyph unicode="&#xe957;" d="M213.332 729.142v-48.214l313.599-239.946c17.267-13.178 38.266-20.411 59.733-20.411s42.466 7.072 59.736 20.411l313.594 239.946v48.214c0 5.143-0.307 10.125-1.088 14.947l-342.22-261.964c-8.711-6.589-19.289-10.286-30.022-10.286s-21.311 3.536-30.022 10.286l-342.22 261.964c-0.623-4.822-1.089-9.964-1.089-14.947zM138.666 690.571c0 21.375-16.644 38.572-37.333 38.572s-37.333-17.196-37.333-38.572v-360c0-120.696 94.733-218.571 211.555-218.571h497.777c20.685 0 37.331 17.197 37.331 38.573s-16.646 38.573-37.331 38.573h-497.777c-75.6 0-136.888 63.322-136.888 141.425v360z" />
<glyph unicode="&#xe958;" d="M214.433 744.090l342.221-261.964c8.711-6.589 19.288-10.286 30.022-10.286s21.311 3.536 30.022 10.286l342.221 261.964c-7.002 49.821-48.378 87.91-98.464 87.91h-547.556c-50.088 0-91.466-38.089-98.466-87.91zM960.006 680.929l-313.6-239.946c-17.265-13.34-38.265-20.411-59.731-20.411s-42.467 7.071-59.733 20.411l-313.598 239.946v-311.786c0-56.733 44.644-102.858 99.555-102.858h547.556c54.906 0 99.552 46.125 99.552 102.858v311.786z" />
<glyph unicode="&#xe959;" glyph-name="all_done" d="M927.744 700.729l28.672-29.082c3.875-3.846 6.058-9.080 6.058-14.541s-2.183-10.695-6.058-14.541l-434.176-434.177c-3.846-3.875-9.081-6.058-14.541-6.058s-10.695 2.183-14.541 6.058l-220.776 220.774c-3.877 3.846-6.058 9.081-6.058 14.541s2.181 10.695 6.058 14.541l28.672 28.672c3.846 3.879 9.080 6.058 14.541 6.058s10.695-2.179 14.541-6.058l75.366-77.005 286.721 288.769c8.102 7.855 20.98 7.855 29.082 0l28.672-29.082c3.875-3.846 6.058-9.080 6.058-14.541s-2.183-10.695-6.058-14.541l-286.72-286.721 44.237-44.237 391.168 391.169c8.102 7.855 20.98 7.855 29.082 0zM360.856 251.806l-235.52 235.11c-3.845 3.879-9.080 6.058-14.541 6.058s-10.695-2.179-14.541-6.058l-28.672-28.672c-3.877-3.846-6.058-9.081-6.058-14.541s2.181-10.695 6.058-14.541l220.774-220.774c3.846-3.875 9.080-6.058 14.541-6.058s10.695 2.183 14.541 6.058l43.418 43.418z" />
<glyph unicode="&#xe95a;" glyph-name="alt" d="M921.6 181.76v40.96c0.033 10.699-8.176 19.624-18.842 20.48h-204.8l-301.875 455.065c-15.246 22.852-40.932 36.541-68.403 36.454h-204.8c-11.311 0-20.48-9.169-20.48-20.48v-40.96c-0.034-10.701 8.175-19.624 18.842-20.48h204.8l301.875-455.065c15.245-22.852 40.931-36.54 68.403-36.454h204.8c11.309 0 20.48 9.167 20.48 20.48zM696.32 734.72h204.8c11.309 0 20.48-9.169 20.48-20.48v-40.96c0-11.311-9.171-20.48-20.48-20.48h-204.8c-11.309 0-20.48 9.169-20.48 20.48v40.96c0 11.311 9.171 20.48 20.48 20.48z" />
<glyph unicode="&#xe95b;" glyph-name="alternator_warning" d="M839.68 693.76v61.44c0 11.311-9.171 20.48-20.48 20.48h-163.84c-11.309 0-20.48-9.169-20.48-20.48v-61.44h-245.76v61.44c0 11.311-9.169 20.48-20.48 20.48h-163.84c-11.311 0-20.48-9.169-20.48-20.48v-61.44c-45.243 0-81.92-36.677-81.92-81.92v-409.6c0-45.244 36.677-81.92 81.92-81.92h655.36c45.244 0 81.92 36.676 81.92 81.92v409.6c0 45.243-36.676 81.92-81.92 81.92zM184.32 411.955v31.13c0 11.309 9.169 20.48 20.48 20.48h45.875v45.875c0 11.309 9.169 20.48 20.48 20.48h30.72c11.311 0 20.48-9.171 20.48-20.48v-45.875h46.285c11.311 0 20.48-9.171 20.48-20.48v-31.13c0-11.309-9.169-20.48-20.48-20.48h-46.285v-45.875c0-11.309-9.169-20.48-20.48-20.48h-30.72c-11.311 0-20.48 9.171-20.48 20.48v45.875h-45.875c-11.311 0-20.48 9.171-20.48 20.48zM634.88 411.955c0-11.309 9.171-20.48 20.48-20.48h163.84c11.309 0 20.48 9.171 20.48 20.48v31.13c0 11.309-9.171 20.48-20.48 20.48h-163.84c-11.309 0-20.48-9.171-20.48-20.48v-31.13z" />
<glyph unicode="&#xe95c;" glyph-name="alternator_warning_outlined" d="M839.68 755.2v-61.44c45.244 0 81.92-36.677 81.92-81.92v-409.6c0-45.244-36.676-81.92-81.92-81.92h-655.36c-45.243 0-81.92 36.676-81.92 81.92v409.6c0 45.243 36.677 81.92 81.92 81.92v61.44c0 11.311 9.169 20.48 20.48 20.48h122.88c11.311 0 20.48-9.169 20.48-20.48v-61.44h327.68v61.44c0 11.311 9.171 20.48 20.48 20.48h122.88c11.309 0 20.48-9.169 20.48-20.48zM184.32 202.24h655.36v409.6h-655.36v-409.6zM266.24 411.955v31.13c0 11.309 9.169 20.48 20.48 20.48h45.875v45.875c0 11.309 9.169 20.48 20.48 20.48h31.13c11.311 0 20.48-9.171 20.48-20.48v-45.875h45.875c11.309 0 20.48-9.171 20.48-20.48v-31.13c0-11.309-9.171-20.48-20.48-20.48h-45.875v-45.875c0-11.309-9.169-20.48-20.48-20.48h-31.13c-11.311 0-20.48 9.171-20.48 20.48v45.875h-45.875c-11.311 0-20.48 9.171-20.48 20.48zM552.96 443.085v-31.13c0-11.309 9.171-20.48 20.48-20.48h163.84c11.309 0 20.48 9.171 20.48 20.48v31.13c0 11.309-9.171 20.48-20.48 20.48h-163.84c-11.309 0-20.48-9.171-20.48-20.48z" />
<glyph unicode="&#xe95d;" glyph-name="amazon" d="M820.992 182.856c4.717 1.83 8.806 2.287 12.268 1.372s5.192-3.581 5.192-8.001c0-4.417-2.359-9.523-7.079-15.312-4.089-4.878-11.011-11.506-20.763-19.886s-24.774-18.743-45.063-31.085c-20.292-12.343-42.472-23.62-66.536-33.83-24.067-10.209-53.641-19.046-88.716-26.515-35.079-7.465-71.178-11.199-108.298-11.199-37.437 0-74.875 4.724-112.309 14.172-37.437 9.448-70.313 21.105-98.626 34.97-28.313 13.868-55.447 29.716-81.4 47.544s-46.796 33.83-62.525 47.998c-15.73 14.172-28.943 27.505-39.639 40.001-2.517 2.744-4.090 5.257-4.719 7.543s-0.472 4.113 0.472 5.485c0.944 1.372 2.202 2.437 3.775 3.202 1.573 0.761 3.382 1.065 5.427 0.911 2.045-0.15 3.854-0.836 5.427-2.055 60.402-35.659 107.591-60.952 141.567-75.885 122.378-53.641 248.057-67.355 377.040-41.144 59.771 12.189 121.272 32.761 184.508 61.713zM918.671 235.428c3.461-4.874 3.854-15.466 1.181-31.771-2.676-16.305-7.158-31.925-13.449-46.855-10.697-25.296-24.067-44.192-40.11-56.689-5.349-4.267-9.438-5.635-12.271-4.113-2.83 1.522-2.83 5.181 0 10.97 6.608 13.715 13.606 32.229 20.999 55.545 7.393 23.313 8.417 38.321 3.069 45.029-1.574 2.133-4.011 3.884-7.315 5.257s-7.55 2.284-12.742 2.741c-5.192 0.457-9.83 0.84-13.92 1.143s-9.595 0.304-16.517 0c-6.919-0.304-11.875-0.608-14.865-0.915-2.987-0.304-7.864-0.761-14.626-1.372-6.765-0.608-10.305-0.911-10.619-0.911-1.888-0.307-3.932-0.536-6.134-0.686-2.202-0.154-3.932-0.307-5.192-0.457-1.26-0.154-2.594-0.304-4.011-0.457s-2.516-0.229-3.304-0.229h-4.717l-1.417 0.229-0.942 0.686-0.71 1.372c-1.888 4.874 5.506 10.97 22.18 18.285s32.874 11.885 48.602 13.715c14.473 2.133 31.461 2.284 50.964 0.457 19.507-1.83 31.461-5.489 35.864-10.974zM732.747 437.944c0-9.448 2.123-19.2 6.373-29.259 4.246-10.056 9.281-18.896 15.101-26.515s11.718-14.626 17.695-21.026c5.977-6.4 11.168-11.278 15.572-14.63l6.134-5.028-107.117-102.4c-12.585 11.274-25.009 22.781-37.28 34.512-12.268 11.735-21.391 20.647-27.368 26.743l-8.967 9.144c-3.461 3.352-7.393 8.38-11.796 15.084-11.953-17.981-27.29-33.597-46.008-46.855s-38.775-22.934-60.167-29.030c-21.391-6.096-43.414-9.598-66.065-10.513s-44.278 2.284-64.884 9.598c-20.606 7.315-39.088 17.295-55.447 29.945-16.359 12.646-29.414 29.867-39.167 51.657-9.752 21.787-14.629 46.551-14.629 74.284 0 25.6 4.404 49.067 13.213 70.4s20.134 39.086 33.976 53.258c13.842 14.169 30.594 26.819 50.257 37.943 19.661 11.124 38.929 19.808 57.805 26.057 18.876 6.246 39.325 11.503 61.348 15.77 22.019 4.267 40.817 7.086 56.388 8.458 15.575 1.372 31.225 2.362 46.954 2.97v58.058c0 19.81-3.304 34.59-9.909 44.343-10.697 16.152-29.73 24.229-57.098 24.229-1.888 0-4.485-0.153-7.786-0.457-3.304-0.304-9.673-2.133-19.111-5.486s-18.248-7.848-26.426-13.486c-8.182-5.638-16.988-14.705-26.426-27.2s-16.988-27.124-22.651-43.886l-138.736 12.343c0 18.286 3.46 36.419 10.382 54.4s17.46 35.2 31.616 51.657c14.157 16.457 31.145 30.933 50.965 43.429 19.818 12.495 43.65 22.476 71.489 29.943 27.843 7.467 57.808 11.2 89.897 11.2 31.457 0 59.928-3.81 85.412-11.429 25.481-7.619 45.851-16.991 61.109-28.114s28-23.771 38.223-37.943c10.223-14.171 17.302-27.276 21.234-39.314s5.898-23.238 5.898-33.6v-269.256zM415.638 428.343c0-26.211 11.011-46.476 33.034-60.798 20.763-13.411 42.626-16.763 65.591-10.059 26.426 7.619 44.36 26.361 53.798 56.228 4.403 13.715 6.605 29.105 6.605 46.172v74.059c-18.562-0.611-36.021-2.441-52.381-5.489-16.357-3.045-33.109-8.151-50.255-15.312s-30.829-17.981-41.056-32.457c-10.223-14.476-15.336-31.925-15.336-52.343z" />
<glyph unicode="&#xe95e;" d="M102.4 772.267h819.2c56.554 0 102.4-45.846 102.4-102.4v-443.733c0-56.554-45.846-102.4-102.4-102.4h-819.2c-56.554 0-102.4 45.846-102.4 102.4v443.733c0 56.554 45.846 102.4 102.4 102.4z" />
<glyph unicode="&#xe95f;" d="M443.177 297.322v94.413l-44.107-46.496 44.107-47.916z" />
<glyph unicode="&#xe960;" d="M258.323 379.901v-21.251l63.067 0.126v-24.34h-63.067v-23.313h70.703l32.917 34.516-31.6 34.263h-72.020z" />
<glyph unicode="&#xe961;" d="M526.257 558.772c3.686 2.061 5.926 6.183 5.926 11.206s-2.372 8.63-5.926 10.562c-3.424 1.932-8.557 2.061-13.694 2.061h-35.55v-26.275h35.154c5.533 0 10.141 0.258 14.090 2.447z" />
<glyph unicode="&#xe962;" d="M52.927 540.25h39.367l-19.75 46.883-19.618-46.883z" />
<glyph unicode="&#xe963;" d="M509.536 379.901h-37.523v-29.624h37.26c10.929 0 17.777 5.151 17.777 15.326-0.133 10.175-7.243 14.298-17.514 14.298z" />
<glyph unicode="&#xe964;" d="M60.3 492.455h24.753l11.191-26.404h96.773v20.093l8.69-20.093h50.032l8.69 20.35v-20.35h240.417v43.019h4.741c3.424 0 4.345-0.386 4.345-5.667v-37.352h124.29v10.175c9.875-5.281 25.412-10.175 46.213-10.175h52.272l11.322 26.404h24.753l11.192-26.404h100.458v24.987l15.404-24.987h80.712v164.349h-79.79v-19.32l-11.455 19.32h-82.026v-19.32l-10.004 19.32h-110.862c-18.698 0-35.154-2.447-48.189-9.402v9.402h-76.363v-9.402c-8.953 7.084-20.145 9.402-32.785 9.402h-279.523l-18.959-42.375-18.96 42.375h-87.951v-19.32l-10.006 19.32h-75.048l-34.628-77.924v-86.425h49.11l11.192 26.404zM639.621 593.434c9.216 9.402 23.962 13.782 43.841 13.782h27.518v-25.245h-26.989c-10.667 0-16.589-1.546-22.252-7.084-5.004-4.894-8.428-14.297-8.428-26.662 0-12.623 2.502-21.51 8.165-27.692 4.212-4.637 12.244-6.054 20.012-6.054h12.902l40.554 92.736h42.923l48.845-111.541v111.541h43.977l50.558-82.046v82.046h29.624v-117.981h-41.079l-54.378 88.357v-88.357h-58.59l-11.059 26.404h-59.907l-11.059-26.404h-33.444c-14.087 0-31.86 3.22-41.868 13.138-10.138 10.046-15.275 23.57-15.275 44.951 0 17.517 3.161 33.488 15.408 46.11zM580.635 607.216h29.491v-117.981h-29.491v117.981zM448.314 607.216h66.355c14.616 0 25.412-0.515 34.628-5.667 9.216-5.281 14.879-13.009 14.879-26.146 0-18.676-12.902-28.336-20.538-31.298 6.318-2.318 11.718-6.569 14.22-10.046 4.079-5.667 4.738-11.077 4.738-21.381v-23.442h-28.966v14.941c0 6.955 0.659 17.259-4.741 22.798-4.079 4.25-10.4 5.152-20.934 5.152h-30.938v-42.891h-28.836v117.981h0.133zM332.185 607.216h96.113v-24.601h-67.41v-21.252h65.7v-24.215h-65.7v-23.313l67.41 0.129v-24.601h-96.113v117.852zM31.597 489.235h-31.336l51.48 117.981h42.922l48.847-111.541v111.541h47.136l37.524-79.985 34.627 79.985h47.926v-117.981h-29.493v92.35l-41.737-92.35h-25.279l-41.869 92.478v-92.478h-58.722l-11.060 26.404h-59.907l-11.060-26.404z" />
<glyph unicode="&#xe965;" d="M755.746 587.133l-19.62-46.883h39.236l-19.616 46.883z" />
<glyph unicode="&#xe966;" d="M960.218 377.173c-3.028-1.932-4.342-4.765-4.342-8.503 0-4.379 2.632-7.468 6.318-8.759 2.898-1.031 6.188-1.287 11.059-1.287l15.404-0.386c15.933-0.386 26.464-2.963 32.918-9.533 0.922-0.901 1.71-1.802 2.369-2.703v33.232h-52.272c-5.134 0-8.69-0.259-11.455-2.062z" />
<glyph unicode="&#xe967;" d="M985.108 286.631h-55.562v25.245h55.296c5.4 0 9.219 0.771 11.588 2.833 1.973 1.802 3.424 4.379 3.424 7.728 0 3.478-1.451 6.182-3.557 7.857-2.106 1.802-5.134 2.574-10.004 2.574-26.86 0.775-60.699-0.901-60.699 36.581 0 16.872 10.929 35.034 41.213 35.034h57.272v23.183h-53.323c-15.93 0-27.911-3.608-36.076-9.404v9.404h-78.602c-12.51 0-27.518-2.963-34.499-9.404v9.404h-140.745v-9.404c-11.192 7.728-30.020 9.404-38.973 9.404h-92.822v-9.404c-8.823 8.373-28.31 9.404-40.291 9.404h-104.015l-23.828-25.245-22.122 25.245h-155.099v-164.349h152.334l24.358 25.631 23.173-25.501 93.744-0.13v38.769h9.349c12.377 0 27.122 0.256 39.895 5.666v-44.435h77.681v43.018h3.82c4.738 0 5.134-0.386 5.134-4.765v-38.253h235.018c14.749 0 30.679 3.734 39.369 10.431v-10.431h74.52c15.404 0 30.679 2.188 42.264 7.598v30.525c-7.503-10.045-20.671-14.81-39.233-14.81zM507.696 326.045h-35.813v-39.414h-56.091l-35.284 38.769-36.867-38.898h-114.151v117.982h115.865l35.284-38.769 36.734 38.769h92.167c22.644 0 48.319-6.441 48.319-39.028-0.13-32.587-25.016-39.41-50.162-39.41zM680.963 331.325c4.082-5.67 4.741-11.076 4.871-21.381v-23.313h-28.966v14.94c0 6.956 0.659 17.258-4.738 22.798-4.215 4.25-10.404 5.151-20.937 5.151h-30.938v-42.889h-28.836v117.982h66.359c14.616 0 25.279-0.515 34.628-5.799 9.216-5.28 14.879-13.008 14.879-26.146 0-18.674-12.906-28.334-20.408-31.297 6.318-2.318 11.718-6.571 14.087-10.045zM799.331 379.884h-67.28v-21.255h65.83v-24.34h-65.83v-23.313h67.41v-24.474h-96.113v117.982h96.113v-24.6h-0.13zM872.533 286.631h-56.088v25.245h55.825c5.4 0 9.216 0.771 11.588 2.833 1.973 1.802 3.424 4.379 3.424 7.728 0 3.478-1.451 6.182-3.557 7.857-2.106 1.802-5.134 2.574-10.008 2.574-26.856 0.775-60.696-0.901-60.696 36.581 0 17.002 10.929 35.034 41.213 35.034h57.668v-25.245h-52.797c-5.267 0-8.69-0.13-11.588-1.932-3.028-1.932-4.212-4.765-4.212-8.503 0-4.379 2.635-7.468 6.321-8.759 3.028-1.027 6.188-1.287 11.059-1.287l15.404-0.386c15.93-0.386 26.464-2.963 32.915-9.53 5.663-5.926 8.69-12.752 8.69-24.989 0.133-25.245-15.93-37.222-45.162-37.222z" />
<glyph unicode="&#xe968;" d="M649.496 377.969c-3.424 1.802-8.69 1.932-13.694 1.932h-35.55v-26.276h35.154c5.53 0 10.271 0.13 14.090 2.318 3.686 2.062 5.922 6.182 5.922 11.206-0.13 5.154-2.369 8.759-5.922 10.82z" />
<glyph unicode="&#xe969;" glyph-name="american_express_01" d="M839.68 775.68c45.244 0 81.92-36.677 81.92-81.92v-491.52c0-45.244-36.676-81.92-81.92-81.92h-655.36c-45.243 0-81.92 36.676-81.92 81.92v491.52c0 45.243 36.677 81.92 81.92 81.92h655.36zM184.32 509.44c0-11.309 9.169-20.48 20.48-20.48h450.56c11.309 0 20.48 9.171 20.48 20.48v81.92c0 11.311-9.171 20.48-20.48 20.48h-450.56c-11.311 0-20.48-9.169-20.48-20.48v-81.92zM819.2 284.16c11.309 0 20.48 9.171 20.48 20.48v81.92c0 11.309-9.171 20.48-20.48 20.48h-450.56c-11.311 0-20.48-9.171-20.48-20.48v-81.92c0-11.309 9.169-20.48 20.48-20.48h450.56z" />
<glyph unicode="&#xe96a;" glyph-name="american_football" d="M763.494 816.64c19.407 0.015 38.109-6.856 52.834-19.259l5.329-4.907 34.816-34.816c15.487-15.393 24.187-36.33 24.17-58.163l-0.197-43.472c-2.74-185.949-42.881-576.663-618.302-576.663-19.408-0.016-38.107 6.857-52.833 19.259l-5.33 4.907-36.454 36.454c-15.485 15.393-24.184 36.332-24.168 58.163l0.316 49.66c3.701 188.264 49.906 568.836 619.818 568.836zM641.823 727.749c-168.088-20.559-285.707-86.576-350.186-197.829-39.017-67.678-55.092-143.43-61.715-209.433l152.7-152.379c168.061 20.398 285.526 86.462 350.153 197.972 38.863 67.342 54.821 143.221 61.379 209.442l-152.33 152.227zM542.015 571.65c-7.995 7.998-7.995 20.965 0 28.963l21.725 21.722c7.995 7.998 20.963 7.998 28.963 0l93.839-93.841c7.995-7.999 7.995-20.963 0-28.963l-21.721-21.721c-7.999-7.999-20.967-7.999-28.963 0l-93.843 93.839zM439.615 498.397c-7.995-7.999-7.995-20.967 0-28.963l93.843-93.843c7.995-7.995 20.963-7.995 28.963 0l21.721 21.725c7.995 7.995 7.995 20.963 0 28.963l-93.839 93.839c-7.999 7.999-20.967 7.999-28.963 0l-21.725-21.721zM337.216 396.177c-7.998-7.995-7.998-20.963 0-28.963l93.843-93.839c7.995-7.999 20.963-7.999 28.963 0l21.721 21.721c7.995 7.999 7.995 20.967 0 28.963l-93.841 93.843c-7.998 7.995-20.965 7.995-28.963 0l-21.722-21.725z" />
<glyph unicode="&#xe96b;" glyph-name="anchor" d="M801.587 488.813h17.613c11.309 0 20.48-9.167 20.48-20.472v-29.893c-4.571-150.68-111.415-278.786-258.867-310.374-17.072-3.723-29.905-17.867-31.949-35.213l-4.506-36.442c-1.229-10.187-9.81-17.887-20.070-18.018h-25.395c-10.26 0.131-18.842 7.832-20.070 18.018l-4.506 36.442c-2.044 17.347-14.877 31.49-31.949 35.213-147.126 31.916-253.568 159.941-258.048 310.374v29.893c0 11.305 9.169 20.472 20.48 20.472h17.613c10.887 0.066 21.352-4.207 29.082-11.874l53.658-52.412c2.899-3.076 3.702-7.574 2.048-11.465-1.742-4.030-5.862-6.5-10.24-6.14h-14.746c-3.705 0.672-7.481-0.745-9.83-3.686-1.385-2.699-1.385-5.898 0-8.598 20.742-92.967 93.37-165.573 186.368-186.307 3.031-0.791 6.255-0.025 8.602 2.044 2.314 1.925 3.662 4.772 3.686 7.782v291.131c0 11.305-9.171 20.472-20.48 20.472h-40.96c-11.311 0-20.48 9.167-20.48 20.472v40.949c0 11.307 9.169 20.473 20.48 20.473h57.344c1.122-0.134 2.245 0.255 3.043 1.053s1.188 1.919 1.053 3.041c-0.127 1.676-1.036 3.194-2.458 4.095-55.525 20.965-88.124 78.608-77.465 136.977s61.527 100.78 120.882 100.78c59.355 0 110.223-42.41 120.881-100.78 10.662-58.369-21.938-116.013-77.464-136.977-1.421-0.9-2.331-2.418-2.458-4.095-0.135-1.121 0.254-2.242 1.053-3.041s1.921-1.187 3.043-1.053h57.344c11.309 0 20.48-9.166 20.48-20.473v-40.949c0-11.305-9.171-20.472-20.48-20.472h-40.96c-11.309 0-20.48-9.167-20.48-20.472v-291.131c0.025-3.011 1.372-5.857 3.686-7.782 2.347-2.068 5.571-2.834 8.602-2.044 93 20.734 165.626 93.34 186.368 186.307 0.791 3.027 0.020 6.25-2.048 8.598-1.925 2.314-4.772 3.662-7.782 3.686h-14.746c-4.084-0.016-7.786 2.4-9.421 6.14-1.655 3.891-0.852 8.389 2.048 11.465l52.838 52.412c7.729 7.668 18.194 11.94 29.082 11.874zM471.040 734.494c0-22.614 18.338-40.946 40.96-40.946s40.96 18.332 40.96 40.946c0 22.614-18.338 40.947-40.96 40.947s-40.96-18.332-40.96-40.947z" />
<glyph unicode="&#xe96c;" glyph-name="android" d="M295.731 652.798h432.538c6.574 0.095 12.722 3.282 16.589 8.601 3.871 5.318 5.005 12.148 3.072 18.433-11.272 38.836-31.953 74.29-60.211 103.219l26.214 43.418c3.805 6.292 3.965 14.137 0.418 20.578s-10.26 10.501-17.613 10.65c-7.352 0.149-14.225-3.636-18.031-9.928l-22.528-37.274c-85.672 61.527-201.048 61.527-286.72 0l-22.528 37.274c-3.805 6.292-10.677 10.077-18.029 9.928s-14.066-4.209-17.613-10.65c-3.547-6.441-3.388-14.286 0.417-20.578l26.214-43.418c-28.851-28.75-50.105-64.219-61.85-103.219-1.935-6.285-0.797-13.115 3.071-18.433s10.014-8.505 16.59-8.601zM582.451 775.678c16.966 0 30.72-13.754 30.72-30.72s-13.754-30.72-30.72-30.72c-16.966 0-30.72 13.754-30.72 30.72 0.106 8.329 3.547 16.267 9.552 22.041s14.070 8.899 22.397 8.679h-1.229zM469.811 744.958c0 16.966-13.754 30.72-30.72 30.72h1.229c-8.327 0.22-16.394-2.907-22.398-8.679s-9.445-13.712-9.551-22.041c0-16.966 13.754-30.72 30.72-30.72s30.72 13.754 30.72 30.72zM286.72 611.838h450.56c11.309 0 20.48-9.169 20.48-20.48v-307.202c0-22.618-18.338-40.96-40.96-40.96h-40.96v-163.84c0-22.618-18.338-40.96-40.96-40.96s-40.96 18.342-40.96 40.96v163.84h-163.84v-163.84c0-22.618-18.339-40.96-40.96-40.96s-40.96 18.342-40.96 40.96v163.84h-40.96c-22.621 0-40.96 18.342-40.96 40.96v307.202c0 11.311 9.169 20.48 20.48 20.48zM798.72 529.916c0 22.623 18.338 40.962 40.96 40.962s40.96-18.339 40.96-40.962v-204.8c0-22.618-18.338-40.96-40.96-40.96s-40.96 18.342-40.96 40.96v204.8zM143.36 529.916c0 22.623 18.339 40.962 40.96 40.962s40.96-18.339 40.96-40.962v-204.8c0-22.618-18.339-40.96-40.96-40.96s-40.96 18.342-40.96 40.96v204.8z" />
<glyph unicode="&#xe96d;" glyph-name="android_phone" d="M348.16 898.56h327.68c67.867 0 122.88-55.015 122.88-122.88v-655.36c0-67.867-55.013-122.88-122.88-122.88h-327.68c-67.865 0-122.88 55.013-122.88 122.88v655.36c0 67.865 55.015 122.88 122.88 122.88zM716.8 734.72c0 22.621-18.338 40.96-40.96 40.96h-327.68c-22.621 0-40.96-18.339-40.96-40.96v-573.44c0-22.622 18.339-40.96 40.96-40.96h327.68c22.622 0 40.96 18.338 40.96 40.96v573.44z" />
<glyph unicode="&#xe96e;" glyph-name="android_phone_vs" d="M348.16 898.56h327.68c67.867 0 122.88-55.015 122.88-122.88v-655.36c0-67.867-55.013-122.88-122.88-122.88h-327.68c-67.865 0-122.88 55.013-122.88 122.88v655.36c0 67.865 55.015 122.88 122.88 122.88zM675.84 79.36c22.622 0 40.96 18.338 40.96 40.96v655.36c0 22.621-18.338 40.96-40.96 40.96h-65.536c-19.28 0.562-36.34-12.404-40.96-31.13l-4.915-19.661c-4.62-18.726-21.68-31.691-40.96-31.13h-18.022c-19.28-0.562-36.34 12.404-40.96 31.13l-4.915 19.661c-4.62 18.726-21.68 31.691-40.96 31.13h-70.451c-22.621 0-40.96-18.339-40.96-40.96v-655.36c0-22.622 18.339-40.96 40.96-40.96h327.68z" />
<glyph unicode="&#xe96f;" glyph-name="android_phones" d="M593.92 898.56h-327.68c-67.865 0-122.88-55.015-122.88-122.88v-655.36c0-67.867 55.015-122.88 122.88-122.88h327.68c67.867 0 122.88 55.013 122.88 122.88v655.36c0 67.865-55.013 122.88-122.88 122.88zM634.88 161.28c0-22.622-18.338-40.96-40.96-40.96h-327.68c-22.621 0-40.96 18.338-40.96 40.96v573.44c0 22.621 18.339 40.96 40.96 40.96h327.68c22.622 0 40.96-18.339 40.96-40.96v-573.44zM798.72 775.68h40.96c22.622 0 40.96-18.339 40.96-40.96v-573.44c0-22.622-18.338-40.96-40.96-40.96h-40.96v655.36z" />
<glyph unicode="&#xe970;" glyph-name="apple" d="M528.62 701.222c-7.274-0.971-14.619 1.21-20.128 5.976-5.506 4.766-8.632 11.647-8.567 18.855 1.881 45.652 18.964 89.437 48.637 124.633 31.232 36.435 73.202 62.462 120.132 74.494 7.513 1.789 15.445 0.037 21.453-4.739s9.404-12.028 9.189-19.615c-2.645-45.783-19.633-89.646-48.637-125.589-29.833-38.793-73.39-65.201-122.078-74.016zM792.228 423.305c0 129.884 97.273 159.014 97.273 187.187 0 28.175-84.142 91.208-173.145 91.208-89.006 0-123.535-41.067-183.846-41.067s-109.431 41.067-184.33 41.067c-83.771-4.535-159.693-49.869-202.327-120.815-30.23-51.268-45.225-109.831-43.286-169.042 0-209.633 153.204-441.709 266.039-441.709 63.229 0 79.278 40.588 166.335 40.588 87.060 0 102.625-40.588 161.959-40.588 122.563 0 224.7 238.763 224.7 242.104-0.089 9.489-5.786 18.060-14.592 21.965-71.202 37.065-115.456 109.978-114.78 189.102z" />
<glyph unicode="&#xe971;" glyph-name="apple_filled" d="M485.22 670.625c4.637-4.088 10.822-5.959 16.949-5.127 41.005 7.561 77.685 30.213 102.81 63.488 24.429 30.83 38.732 68.454 40.96 107.725 0.184 6.508-2.679 12.729-7.737 16.825s-11.739 5.599-18.067 4.065c-39.522-10.32-74.871-32.645-101.171-63.898-24.99-30.19-39.379-67.747-40.96-106.906-0.057-6.183 2.576-12.084 7.217-16.173zM786.534 561.644c-24.232-22.741-62.362-58.52-62.362-134.534-0.569-67.867 36.7-130.408 96.666-162.202 7.418-3.351 12.214-10.703 12.288-18.842 0-2.867-86.016-207.667-189.235-207.667-22.598 0-37.659 7.123-54.153 14.922-19.984 9.449-42.082 19.894-82.244 19.894-39.584 0-61.735-10.146-82.122-19.485-17.372-7.959-33.461-15.331-57.961-15.331-95.027 0-224.051 199.066-224.051 378.88-1.633 50.79 10.996 101.020 36.454 145 35.906 60.853 99.845 99.739 170.394 103.629 33.246 0 60.461-9.785 86.204-19.041 23.101-8.305 45.015-16.185 69.034-16.185 22.934 0 41.439 7.181 61.739 15.059 24.666 9.569 51.978 20.167 93.090 20.167 74.957 0 145.818-54.067 145.818-78.234 0-7.679-8.27-15.44-19.558-26.031z" />
<glyph unicode="&#xe972;" glyph-name="apple_outlined" d="M629.757 874.667c5.885-0.112 11.482-2.553 15.565-6.785 4.079-4.233 6.308-9.91 6.195-15.783-2.321-40.826-17.224-79.939-42.667-111.989-26.32-34.273-64.509-57.506-107.093-65.15h-3.413c-5.885 0.112-11.482 2.553-15.565 6.785s-6.311 9.91-6.195 15.783c1.649 40.708 16.637 79.752 42.667 111.138 27.457 32.332 64.273 55.388 105.387 66.001h5.12zM666.45 590.223c-22.47-0.003-44.694-4.642-65.28-13.626-30.365-13.083-62.942-20.306-96-21.292-34.997 0.918-69.543 8.131-101.973 21.292-18.906 8.281-39.127 13.182-59.733 14.476-44.288-4.164-83.692-29.798-105.387-68.557-18.065-32.164-26.644-68.775-24.747-105.602 0-153.719 108.373-301.476 149.334-308.716 4.693 0 7.68 0 23.893 8.090 37.461 18.753 78.838 28.382 120.747 28.105 41.23 0.3 81.92-9.339 118.613-28.105 14.933-6.813 17.92-8.090 23.467-8.090 20.907 2.557 63.147 56.634 93.013 109.862-60.628 52.559-95.225 128.928-94.72 209.073-1.345 56.33 16.227 111.49 49.92 156.699-9.923 3.949-20.47 6.113-31.147 6.39zM666.45 675.385c78.080 0 151.893-62.17 151.893-81.332 0-19.159-85.333-51.098-85.333-166.919-1.236-71.165 37.68-136.991 100.693-170.325 7.724-3.482 12.721-11.127 12.8-19.589 0-3.407-89.6-215.887-197.12-215.887-54.187 0-68.693 36.195-142.080 36.195s-90.453-34.492-145.92-34.492c-98.987 0-233.387 206.947-233.387 393.878-1.701 52.801 11.454 105.021 37.973 150.74 37.402 63.262 104.005 103.687 177.494 107.731 65.707 0 107.093-36.62 161.707-36.62s85.333 36.62 161.28 36.62z" />
<glyph unicode="&#xe973;" glyph-name="apple_outlined_line" d="M625.050 857.6h-4.915c-39.469-10.189-74.809-32.322-101.171-63.361-24.99-30.13-39.379-67.612-40.96-106.692-0.111-5.638 2.032-11.088 5.947-15.152 3.92-4.063 9.294-6.407 14.942-6.514h3.277c40.882 7.338 77.545 29.642 102.81 62.544 24.429 30.768 38.732 68.317 40.96 107.51 0.111 5.638-2.028 11.088-5.947 15.152-3.916 4.063-9.294 6.407-14.942 6.514zM660.275 584.533c10.252-0.266 20.374-2.342 29.901-6.132-32.342-43.402-49.213-96.356-47.923-150.431-0.483-76.943 32.727-150.254 90.931-200.712-28.672-51.098-69.222-103.014-89.293-105.468-5.325 0-8.192 1.229-22.528 7.766-35.226 18.014-74.289 27.271-113.869 26.98-40.231 0.27-79.954-8.978-115.916-26.98-15.565-7.766-18.432-7.766-22.938-7.766-39.322 6.951-143.36 148.799-143.36 296.37-1.822 35.353 6.414 70.496 23.757 101.376 20.827 37.208 58.655 61.815 101.171 65.814 19.783-1.244 39.193-5.948 57.344-13.899 31.133-12.635 64.299-19.559 97.894-20.439 31.74 0.946 63.009 7.881 92.16 20.439 19.763 8.625 41.099 13.079 62.669 13.081zM806.093 588.212c0 18.396-70.861 78.078-145.818 78.078-39.453 0-66.191-10.294-90.73-19.741-20.812-8.011-40.038-15.414-64.098-15.414-25.002 0-47.12 7.995-70.255 16.36-25.379 9.175-51.987 18.795-84.983 18.795-70.549-3.882-134.488-42.691-170.394-103.422-25.459-43.892-38.087-94.019-36.454-144.707 0-179.458 129.024-378.126 224.051-378.126 24.764 0 41.554 7.164 59.518 14.823 20.665 8.815 42.877 18.289 80.565 18.289 37.892 0 59.433-10.052 79.344-19.341 17.109-7.983 33.014-15.405 57.053-15.405 103.219 0 189.235 203.981 189.235 207.254-0.074 8.122-4.87 15.458-12.288 18.805-60.494 31.998-97.853 95.191-96.666 163.512 0 79.041 41.398 117.383 65.335 139.56 9.736 9.019 16.585 15.363 16.585 20.682z" />
<glyph unicode="&#xe974;" glyph-name="apple_watch" d="M640.614 864.15l22.118-132.71c55.62-12.944 94.99-62.498 95.027-119.603v-327.681c0.184-54.764-35.897-103.039-88.474-118.374l-22.118-133.939c-3.244-20.029-20.668-34.669-40.96-34.406h-176.128c-20.291-0.262-37.715 14.377-40.96 34.406l-24.166 131.891c-57.384 11.51-98.686 61.895-98.714 120.422v327.681c0.036 57.105 39.408 106.659 95.027 119.603l21.709 132.71c3.245 20.031 20.669 34.667 40.96 34.406h175.718c20.292 0.261 37.716-14.375 40.96-34.406zM634.88 243.196c22.622 0 40.96 18.338 40.96 40.96v327.681c0 22.621-18.338 40.96-40.96 40.96h-245.76c-22.621 0-40.96-18.339-40.96-40.96v-327.681c0-22.622 18.339-40.96 40.96-40.96h245.76z" />
<glyph unicode="&#xe975;" glyph-name="appointment" d="M798.72 775.68h-40.96v61.44c0 11.311-9.171 20.48-20.48 20.48h-40.96c-11.309 0-20.48-9.169-20.48-20.48v-61.44h-327.68v61.44c0 11.311-9.169 20.48-20.48 20.48h-40.96c-11.311 0-20.48-9.169-20.48-20.48v-61.44h-40.96c-45.243 0-81.92-36.677-81.92-81.92v-532.48c0-45.244 36.677-81.92 81.92-81.92h573.44c45.244 0 81.92 36.676 81.92 81.92v532.48c0 45.243-36.676 81.92-81.92 81.92zM798.72 161.28h-573.44v450.56h573.44v-450.56zM468.582 284.099c-5.431 0-10.621 2.245-14.336 6.205l-87.245 88.064c-7.806 7.963-7.806 20.709 0 28.672l21.709 20.89c8.102 7.856 20.979 7.856 29.082 0l50.381-50.79 137.626 137.626c8.102 7.856 20.98 7.856 29.082 0l22.118-21.709c7.856-8.102 7.856-20.98 0-29.082l-174.080-173.67c-3.715-3.961-8.905-6.205-14.336-6.205z" />
<glyph unicode="&#xe976;" glyph-name="appointment_cancelled" d="M880.64 693.76c0 45.243-36.676 81.92-81.92 81.92h-40.96v61.44c0 11.311-9.171 20.48-20.48 20.48h-40.96c-11.309 0-20.48-9.169-20.48-20.48v-61.44h-327.68v61.44c0 11.311-9.169 20.48-20.48 20.48h-40.96c-11.311 0-20.48-9.169-20.48-20.48v-61.44h-40.96c-45.243 0-81.92-36.677-81.92-81.92v-532.48c0-45.244 36.677-81.92 81.92-81.92h573.44c45.244 0 81.92 36.676 81.92 81.92v532.48zM798.72 611.84v-450.56h-573.44v450.56h573.44zM628.736 473.395l-65.946-66.355 65.946-66.355c3.961-3.715 6.205-8.905 6.205-14.336s-2.245-10.621-6.205-14.336l-21.709-21.709c-3.715-3.961-8.905-6.205-14.336-6.205s-10.621 2.245-14.336 6.205l-66.355 65.946-66.355-65.946c-3.715-3.961-8.905-6.205-14.336-6.205s-10.62 2.245-14.336 6.205l-21.709 21.709c-3.96 3.715-6.206 8.905-6.206 14.336s2.246 10.621 6.206 14.336l65.946 66.355-65.946 66.355c-3.96 3.715-6.206 8.905-6.206 14.336s2.246 10.621 6.206 14.336l21.709 21.709c3.716 3.961 8.905 6.205 14.336 6.205s10.621-2.245 14.336-6.205l66.355-65.946 66.355 65.946c3.715 3.961 8.905 6.205 14.336 6.205s10.621-2.245 14.336-6.205l21.709-21.709c3.961-3.715 6.205-8.905 6.205-14.336s-2.245-10.621-6.205-14.336z" />
<glyph unicode="&#xe977;" d="M455.461 210.182c-7 99.398-85.924 176.045-184.274 181.471 37.45 83.824 102.2 221.548 155.399 300.123 143.324 211.346 356.825 218.472 484.223 194.992 20.474-3.743 36.224-19.521 39.898-39.873 23.45-127.469 16.448-340.968-194.95-484.291-78.221-52.85-215.421-115.672-300.296-152.421zM735.987 742.001c-38.675 0-70.003-31.325-70.003-70s31.328-69.999 70.003-69.999c38.669 0 69.997 31.325 69.997 69.999s-31.328 70-69.997 70z" />
<glyph unicode="&#xe978;" d="M104.426 392.002c-13.597 0-27.59 8.225-35.030 21.35-7.439 13.3-7.17 30.975 0.707 42.525l92.352 151.899c22.837 37.625 63.665 60.724 107.694 60.724h141.399c-49.875-80.324-106.225-200.373-140.174-276.498h-166.948zM730.918 206.15c0-44.096-21.523-84.87-59.149-107.795l-151.898-92.224c-13.124-7.878-29.224-8.224-42.525-0.704-13.124 7.354-22.925 21.35-22.925 36.576v168.352c78.4 33.248 198.275 88.026 276.496 137.197v-141.402zM355.373 73.504c-86.625-86.624-290.539-72.621-290.539-72.621s-13.987 205.446 72.63 290.496c60.182 60.198 157.709 60.198 217.908 0s60.2-157.677 0-217.875zM273.649 209.651c-20.125 19.955-52.483 19.955-72.484 0-28.805-28.87-24.15-96.595-24.15-96.595s67.759-4.73 96.634 24.147c19.949 19.949 19.949 52.326 0 72.448z" />
<glyph unicode="&#xe979;" glyph-name="apps_11" d="M348.16 755.2v-122.88c0-11.311-9.169-20.48-20.48-20.48h-122.88c-11.311 0-20.48 9.169-20.48 20.48v122.88c0 11.311 9.169 20.48 20.48 20.48h122.88c11.311 0 20.48-9.169 20.48-20.48zM573.44 775.68h-122.88c-11.309 0-20.48-9.169-20.48-20.48v-122.88c0-11.311 9.171-20.48 20.48-20.48h122.88c11.309 0 20.48 9.169 20.48 20.48v122.88c0 11.311-9.171 20.48-20.48 20.48zM696.32 775.68h122.88c11.309 0 20.48-9.169 20.48-20.48v-122.88c0-11.311-9.171-20.48-20.48-20.48h-122.88c-11.309 0-20.48 9.169-20.48 20.48v122.88c0 11.311 9.171 20.48 20.48 20.48zM327.68 529.92h-122.88c-11.311 0-20.48-9.171-20.48-20.48v-122.88c0-11.309 9.169-20.48 20.48-20.48h122.88c11.311 0 20.48 9.171 20.48 20.48v122.88c0 11.309-9.169 20.48-20.48 20.48zM450.56 529.92h122.88c11.309 0 20.48-9.171 20.48-20.48v-122.88c0-11.309-9.171-20.48-20.48-20.48h-122.88c-11.309 0-20.48 9.171-20.48 20.48v122.88c0 11.309 9.171 20.48 20.48 20.48zM819.2 529.92h-122.88c-11.309 0-20.48-9.171-20.48-20.48v-122.88c0-11.309 9.171-20.48 20.48-20.48h122.88c11.309 0 20.48 9.171 20.48 20.48v122.88c0 11.309-9.171 20.48-20.48 20.48zM204.8 284.16h122.88c11.311 0 20.48-9.171 20.48-20.48v-122.88c0-11.309-9.169-20.48-20.48-20.48h-122.88c-11.311 0-20.48 9.171-20.48 20.48v122.88c0 11.309 9.169 20.48 20.48 20.48zM573.44 284.16h-122.88c-11.309 0-20.48-9.171-20.48-20.48v-122.88c0-11.309 9.171-20.48 20.48-20.48h122.88c11.309 0 20.48 9.171 20.48 20.48v122.88c0 11.309-9.171 20.48-20.48 20.48zM696.32 284.16h122.88c11.309 0 20.48-9.171 20.48-20.48v-122.88c0-11.309-9.171-20.48-20.48-20.48h-122.88c-11.309 0-20.48 9.171-20.48 20.48v122.88c0 11.309 9.171 20.48 20.48 20.48z" />
<glyph unicode="&#xe97a;" glyph-name="appstore" d="M179.619 153.593c12.857 21.156 34.286 33.847 55.715 33.847h85.715l-51.429-88.846-4.286-4.229c-12.857-25.385-47.143-29.617-72.858-16.923-25.714 12.691-34.286 46.537-17.143 71.922l4.285 4.229zM501.050 343.979c30 0 55.716-16.923 68.57-42.308l38.574-63.461h-471.432c-25.715 0-51.429 25.385-51.429 55.002 0 25.382 21.429 50.767 51.429 50.767h158.572l158.574 270.769-77.145 135.386c-4.287 0-4.287 4.23-4.287 4.23-17.142 29.615-4.284 59.231 21.429 71.923 25.716 12.692 60.003 4.231 72.858-25.385l47.145-80.385 47.142 80.385 4.287 4.231c12.858 25.385 47.142 29.615 72.858 16.923 25.713-12.692 34.287-46.538 17.142-71.923l-240.002-406.156h85.716zM891.054 343.979c25.713 0 51.429-25.385 47.142-54.999 0-25.385-21.429-50.77-51.429-50.77h-89.999l55.712-93.075c4.287 0 4.287-4.233 4.287-4.233 12.858-25.385 0-59.232-25.716-71.922-25.713-12.694-60 0-72.858 25.385l-175.715 300.384c-21.429 38.079-21.429 88.846 0 126.925l25.716 42.308 128.57-220.003h154.289z" />
<glyph unicode="&#xe97b;" glyph-name="appstore_sm" d="M501.49 348.14h-82.288l230.403 389.91c16.454 24.369 8.229 56.861-16.458 69.046s-57.602 8.123-69.943-16.246l-4.116-4.062-45.257-77.169-45.257 77.169c-12.345 28.431-45.258 36.554-69.944 24.37s-37.029-40.616-20.572-69.046c0 0 0-4.062 4.114-4.062l74.056-129.97-152.227-259.94h-152.23c-28.8 0-49.372-24.367-49.372-48.738 0-28.43 24.686-52.797 49.372-52.797h452.573l-37.028 60.92c-12.341 24.371-37.028 40.616-65.827 40.616zM192.915 165.372l-4.114-4.063c-16.457-24.367-8.229-56.861 16.457-69.046s57.6-8.122 69.943 16.249l4.114 4.059 49.372 85.291h-82.286c-20.572 0-41.143-12.182-53.486-32.489zM727.777 348.14h148.111c24.687 0 49.373-24.367 45.261-52.797 0-24.371-20.574-48.738-49.373-48.738h-86.401l53.486-89.354c4.116 0 4.116-4.063 4.116-4.063 12.341-24.371 0-56.861-24.687-69.046s-57.602 0-69.943 24.371l-168.686 288.367c-20.574 36.557-20.574 85.295 0 121.848l24.682 40.616 123.433-211.202z" />
<glyph unicode="&#xe97c;" d="M960 776v-84c0-15.4-12.602-28-28-28h-840c-15.421 0-28 12.6-28 28v84c0 30.957 25.043 56 56 56h784c30.976 0 56-25.043 56-56z" />
<glyph unicode="&#xe97d;" d="M120 132c0-46.374 37.608-84 84-84h616c46.394 0 84 37.606 84 84v532h-784v-532zM344 524c0 15.4 12.6 28 28 28h280c15.398 0 28-12.6 28-28v-56c0-15.4-12.602-28-28-28h-280c-15.4 0-28 12.6-28 28v56z" />
<glyph unicode="&#xe97e;" glyph-name="archive_a" d="M798.72 816.64h-573.44c-45.243 0-81.92-36.677-81.92-81.92v-573.44c0-45.244 36.677-81.92 81.92-81.92h573.44c45.244 0 81.92 36.676 81.92 81.92v573.44c0 45.243-36.676 81.92-81.92 81.92zM671.334 352.973l-144.998-144.589c-3.715-3.961-8.905-6.205-14.336-6.205s-10.621 2.245-14.336 6.205l-144.998 144.589c-7.855 8.102-7.855 20.98 0 29.082l8.602 8.602c3.847 3.707 8.992 5.767 14.336 5.734h54.477v154.010c0 11.311 9.171 20.48 20.48 20.48h122.88c11.309 0 20.48-9.169 20.48-20.48v-154.010h54.477c5.345 0.033 10.49-2.028 14.336-5.734l8.602-8.602c7.856-8.102 7.856-20.98 0-29.082zM225.28 652.8v81.92h573.44v-81.92h-573.44z" />
</font>
</defs>
</svg>
